<?xml version="1.0" standalone="no"?>
<!DOCTYPE svg PUBLIC "-//W3C//DTD SVG 1.1//EN" "http://www.w3.org/Graphics/SVG/1.1/DTD/svg11.dtd">
<svg xmlns="http://www.w3.org/2000/svg" xmlns:xlink="http://www.w3.org/1999/xlink" width="401" height="163" viewBox="0 0 401 163" version="1.1">
    <title>Artboard</title>
    <g id="Artboard" stroke="none" stroke-width="1" fill="none" fill-rule="evenodd">
        <g id="logo-airlyft" transform="translate(0, 3)" fill-rule="nonzero">
            <path d="M231.5454,58.2856396 C226.2791,56.6387396 223.0751,31.6543396 236.414,15.0981396 C247.2149,1.74533957 265.7493,-2.15616043 280.6474,1.06923957 C284.0395,1.80963957 305.8841,6.38083957 312.4056,26.1457396 C317.9424,43.4439396 307.2833,58.5949396 305.9332,60.2640396 C298.8337,53.8444396 290.897,48.3942396 285.2914,50.5877396 C277.9534,53.6730396 280.1185,68.2977396 274.5651,69.9004396 C267.1954,71.6434396 259.4635,46.8621396 247.2359,47.4401396 C238.8032,47.6027396 235.6443,59.5337396 231.5454,58.2856396 L231.5454,58.2856396 Z" id="Path" stroke="#393939" stroke-width="4" fill="#FFDC5F"/>
            <path d="M385.7148,80.7650396 L385.7148,103.80464 C385.7148,111.56084 387.5548,115.11064 393.6023,115.11064 C396.0999,115.11064 398.072,114.84784 399.5179,114.58464 L399.6493,129.70264 C397.0203,130.75444 392.2878,131.54334 386.6346,131.54334 C380.1929,131.54334 374.803,129.17714 371.6484,125.89054 C367.9671,122.07794 366.1264,115.89904 366.1264,106.82834 L366.1264,80.7650396 L357.582,80.7650396 L357.582,65.8122396 L366.1266,65.8122396 L366.1266,51.8772396 L385.7149,47.4075396 L385.7149,65.8122396 L400.0441,65.8122396 L400.0441,80.7650396 L385.7149,80.7650396 L385.7148,80.7650396 Z M347.8118,51.0888396 C341.2388,51.0888396 338.7412,55.8212396 338.7412,62.7879396 L338.7412,65.8122396 L351.7957,65.8122396 L351.7957,80.7650396 L338.8727,80.7650396 L338.8727,130.09744 L319.0734,130.09744 L319.0734,80.7650396 L310.345,80.7650396 L310.345,65.8122396 L319.0734,65.8122396 L319.0734,63.3146396 C319.0734,55.5584396 321.1249,47.0134396 326.9096,41.7548396 C331.9048,37.0224396 338.8726,35.3132396 344.6568,35.3132396 C349.1264,35.3132396 353.2686,35.9707396 355.568,36.8910396 L353.4646,52.1405396 C351.7559,51.4830396 350.328,51.0888396 347.8119,51.0888396 L347.8118,51.0888396 Z M267.162,150.34214 C260.1942,156.38964 252.8322,158.49314 247.837,159.15014 L243.6302,142.19184 C246.1278,141.79714 249.2829,140.61394 252.3067,138.77384 C255.3304,137.19604 258.6169,134.19834 260.5884,130.75444 C261.2459,130.27754 261.6401,128.78244 261.6401,127.86264 C261.6401,127.20514 261.5087,126.15334 260.7203,124.57564 L237.427,65.8121396 L259.4053,65.8121396 L269.455,97.3630396 C270.4352,101.33304 271.3682,105.90804 272.3955,109.32604 L272.5513,109.32604 C273.4716,105.90804 274.5233,101.04424 275.4436,97.3630396 L283.3312,65.8121396 L304.7596,65.8121396 L289.7729,108.14294 C280.5708,133.64674 274.3919,143.90054 267.1619,150.34214 L267.162,150.34214 Z M178.0014,41.4920396 L197.9531,41.4920396 L197.9531,113.27014 L233.1846,113.27014 L233.1846,130.09744 L178.0014,130.09744 L178.0014,41.4920396 L178.0014,41.4920396 Z M147.5584,93.0247396 C147.2957,94.3397396 147.1643,96.2890396 147.1643,97.7619396 L147.1643,130.09744 L127.1823,130.09744 L127.1823,86.9778396 C127.1823,77.5124396 126.919,71.3336396 126.6562,65.8122396 L143.8777,65.8122396 L144.5353,77.6438396 L145.0609,77.6438396 C148.3474,68.3103396 156.2349,64.3663396 162.4139,64.3663396 C164.2544,64.3663396 165.1748,64.3663396 166.6206,64.7483396 L166.6206,83.5599396 C165.1747,83.2129396 163.4656,82.9024396 161.2307,82.9024396 C153.8687,82.9024396 148.8735,86.8464396 147.5585,93.0247396 L147.5584,93.0247396 Z M100.9892,57.9247396 C95.0461,57.9247396 90.4721,53.4550396 90.6035,47.9337396 C90.4721,42.1490396 95.0461,37.8107396 101.1205,37.8107396 C107.5622,37.8107396 112.043,42.1490396 111.7691,47.9337396 C111.7691,53.4550396 107.5622,57.9247396 100.9891,57.9247396 L100.9892,57.9247396 Z M52.4532,107.35454 L26.9,107.35454 L20.5897,130.09744 L0,130.09744 L26.9,41.4920396 L53.1922,41.4920396 L80.668,130.09744 L59.1082,130.09744 L52.4531,107.35444 L52.4532,107.35454 Z M43.8588,73.5684396 C42.281,68.3104396 40.7037,61.7373396 39.3887,56.4787396 L39.1259,56.4787396 C37.8114,61.7373396 36.4969,68.4417396 35.0504,73.5684396 L29.7924,92.3677396 L49.38,92.3677396 L43.8586,73.5684396 L43.8588,73.5684396 Z M111.5503,130.09744 L91.1295,130.09744 L91.1295,65.8122396 L111.5503,65.8122396 L111.5503,130.09744 L111.5503,130.09744 Z" id="Shape" fill="#393939"/>
        </g>
    </g>
</svg>