<svg width="1420" height="900" viewBox="0 0 1420 900" fill="none" xmlns="http://www.w3.org/2000/svg">
<mask id="path-1-inside-1_28_71" fill="white">
<rect width="1420" height="900" rx="8"/>
</mask>
<rect width="1420" height="900" rx="8" fill="#FEFEFE" stroke="#EDF1F5" stroke-width="20" mask="url(#path-1-inside-1_28_71)"/>
<rect x="96" y="200" width="300" height="20" rx="10" fill="#EEEEEE"/>
<rect x="96" y="360" width="502" height="20" rx="10" fill="#EEEEEE"/>
<rect x="96" y="520" width="600" height="20" rx="10" fill="#EEEEEE"/>
<rect x="96" y="440" width="280" height="20" rx="10" fill="#EEEEEE"/>
<rect x="396" y="440" width="240" height="20" rx="10" fill="#EEEEEE"/>
<rect x="96" y="280" width="150" height="20" rx="10" fill="#EEEEEE"/>
<rect x="266" y="280" width="200" height="20" rx="10" fill="#EEEEEE"/>
<rect x="486" y="280" width="160" height="20" rx="10" fill="#EEEEEE"/>
<rect x="724" y="200" width="300" height="20" rx="10" fill="#EEEEEE"/>
<rect x="724" y="360" width="502" height="20" rx="10" fill="#EEEEEE"/>
<rect x="724" y="520" width="600" height="20" rx="10" fill="#EEEEEE"/>
<rect x="724" y="440" width="280" height="20" rx="10" fill="#EEEEEE"/>
<rect x="1024" y="440" width="240" height="20" rx="10" fill="#EEEEEE"/>
<rect x="724" y="280" width="150" height="20" rx="10" fill="#EEEEEE"/>
<rect x="894" y="280" width="200" height="20" rx="10" fill="#EEEEEE"/>
<rect x="1114" y="280" width="160" height="20" rx="10" fill="#EEEEEE"/>
<rect x="96" y="360" width="300" height="20" rx="10" fill="#EEEEEE"/>
<rect x="96" y="520" width="502" height="20" rx="10" fill="#EEEEEE"/>
<rect x="96" y="680" width="600" height="20" rx="10" fill="#EEEEEE"/>
<rect x="96" y="600" width="280" height="20" rx="10" fill="#EEEEEE"/>
<rect x="396" y="600" width="240" height="20" rx="10" fill="#EEEEEE"/>
<rect x="96" y="440" width="150" height="20" rx="10" fill="#EEEEEE"/>
<rect x="266" y="440" width="200" height="20" rx="10" fill="#EEEEEE"/>
<rect x="486" y="440" width="160" height="20" rx="10" fill="#EEEEEE"/>
<rect x="724" y="360" width="300" height="20" rx="10" fill="#EEEEEE"/>
<rect x="724" y="520" width="502" height="20" rx="10" fill="#EEEEEE"/>
<rect x="724" y="680" width="600" height="20" rx="10" fill="#EEEEEE"/>
<rect x="724" y="600" width="280" height="20" rx="10" fill="#EEEEEE"/>
<rect x="1024" y="600" width="240" height="20" rx="10" fill="#EEEEEE"/>
<rect x="724" y="440" width="150" height="20" rx="10" fill="#EEEEEE"/>
<rect x="894" y="440" width="200" height="20" rx="10" fill="#EEEEEE"/>
<rect x="1114" y="440" width="160" height="20" rx="10" fill="#EEEEEE"/>
<rect x="96" y="440" width="300" height="20" rx="10" fill="#EEEEEE"/>
<rect x="96" y="600" width="502" height="20" rx="10" fill="#EEEEEE"/>
<rect x="96" y="760" width="600" height="20" rx="10" fill="#EEEEEE"/>
<rect x="96" y="680" width="280" height="20" rx="10" fill="#EEEEEE"/>
<rect x="396" y="680" width="240" height="20" rx="10" fill="#EEEEEE"/>
<rect x="96" y="520" width="150" height="20" rx="10" fill="#EEEEEE"/>
<rect x="266" y="520" width="200" height="20" rx="10" fill="#EEEEEE"/>
<rect x="486" y="520" width="160" height="20" rx="10" fill="#EEEEEE"/>
<rect x="724" y="440" width="300" height="20" rx="10" fill="#EEEEEE"/>
<rect x="724" y="600" width="502" height="20" rx="10" fill="#EEEEEE"/>
<rect x="724" y="760" width="600" height="20" rx="10" fill="#EEEEEE"/>
<rect x="724" y="680" width="280" height="20" rx="10" fill="#EEEEEE"/>
<rect x="1024" y="680" width="240" height="20" rx="10" fill="#EEEEEE"/>
<rect x="724" y="520" width="150" height="20" rx="10" fill="#EEEEEE"/>
<rect x="894" y="520" width="200" height="20" rx="10" fill="#EEEEEE"/>
<rect x="1114" y="520" width="160" height="20" rx="10" fill="#EEEEEE"/>
<rect x="96" y="136" width="32" height="32" fill="#EDF1F5"/>
<rect x="1023" y="136" width="82" height="32" fill="#EEF2F5"/>
<rect x="1131" y="136" width="82" height="32" fill="#EEF2F5"/>
<rect x="1243" y="137" width="80" height="30" stroke="#FAA4BA" stroke-width="2"/>
<rect x="1255" y="148" width="31" height="6" fill="#F87A9A"/>
<rect x="1293" y="148" width="18" height="6" fill="#F87A9A"/>
<path d="M0 8C0 3.58172 3.58172 0 8 0H1412C1416.42 0 1420 3.58172 1420 8V80H0V8Z" fill="#EDF1F5"/>
<circle cx="42" cy="40" r="10" fill="#E75545"/>
<circle cx="74" cy="40" r="10" fill="#FFC600"/>
<circle cx="106" cy="40" r="10" fill="#00B68A"/>
<rect x="138" y="28" width="1092" height="24" rx="4" fill="#F8FAFB"/>
<rect x="405" y="201" width="610" height="598" rx="7" fill="white" stroke="#8E86E0" stroke-width="2"/>
<line x1="404" y1="259" x2="1016" y2="259" stroke="#8E86E0" stroke-width="2"/>
<circle cx="976" cy="230" r="19.5" fill="white" stroke="#AAAAAA"/>
<path d="M982.712 234.973C983.201 235.462 983.201 236.223 982.712 236.712C982.467 236.957 982.168 237.065 981.842 237.065C981.516 237.065 981.217 236.957 980.973 236.712L976 231.739L971.027 236.712C970.782 236.957 970.483 237.065 970.157 237.065C969.831 237.065 969.532 236.957 969.288 236.712C968.799 236.223 968.799 235.462 969.288 234.973L974.261 230L969.288 225.027C968.799 224.538 968.799 223.777 969.288 223.288C969.777 222.799 970.538 222.799 971.027 223.288L976 228.261L980.973 223.288C981.462 222.799 982.223 222.799 982.712 223.288C983.201 223.777 983.201 224.538 982.712 225.027L977.739 230L982.712 234.973Z" fill="#AAAAAA"/>
<path d="M425.435 237V222.455H430.889C432.007 222.455 432.944 222.663 433.702 223.08C434.464 223.496 435.039 224.069 435.428 224.798C435.821 225.523 436.017 226.347 436.017 227.27C436.017 228.203 435.821 229.031 435.428 229.756C435.035 230.48 434.455 231.051 433.688 231.467C432.92 231.879 431.976 232.085 430.854 232.085H427.239V229.919H430.499C431.152 229.919 431.687 229.805 432.104 229.578C432.52 229.351 432.828 229.038 433.027 228.641C433.231 228.243 433.332 227.786 433.332 227.27C433.332 226.754 433.231 226.299 433.027 225.906C432.828 225.513 432.518 225.208 432.097 224.99C431.68 224.768 431.143 224.656 430.484 224.656H428.07V237H425.435ZM442.794 237.213C441.729 237.213 440.806 236.979 440.025 236.51C439.243 236.041 438.637 235.385 438.206 234.543C437.78 233.7 437.567 232.715 437.567 231.588C437.567 230.461 437.78 229.474 438.206 228.626C438.637 227.779 439.243 227.121 440.025 226.652C440.806 226.183 441.729 225.949 442.794 225.949C443.86 225.949 444.783 226.183 445.564 226.652C446.346 227.121 446.949 227.779 447.375 228.626C447.806 229.474 448.022 230.461 448.022 231.588C448.022 232.715 447.806 233.7 447.375 234.543C446.949 235.385 446.346 236.041 445.564 236.51C444.783 236.979 443.86 237.213 442.794 237.213ZM442.809 235.153C443.386 235.153 443.869 234.995 444.257 234.678C444.646 234.356 444.935 233.925 445.124 233.385C445.318 232.845 445.415 232.244 445.415 231.581C445.415 230.913 445.318 230.31 445.124 229.77C444.935 229.225 444.646 228.792 444.257 228.47C443.869 228.148 443.386 227.987 442.809 227.987C442.217 227.987 441.724 228.148 441.331 228.47C440.943 228.792 440.652 229.225 440.458 229.77C440.268 230.31 440.174 230.913 440.174 231.581C440.174 232.244 440.268 232.845 440.458 233.385C440.652 233.925 440.943 234.356 441.331 234.678C441.724 234.995 442.217 235.153 442.809 235.153ZM450.204 241.091V226.091H452.732V227.895H452.881C453.014 227.63 453.201 227.348 453.442 227.05C453.684 226.747 454.011 226.489 454.423 226.276C454.835 226.058 455.36 225.949 455.999 225.949C456.842 225.949 457.602 226.164 458.279 226.595C458.961 227.021 459.501 227.653 459.898 228.491C460.301 229.325 460.502 230.348 460.502 231.56C460.502 232.758 460.306 233.776 459.913 234.614C459.52 235.452 458.985 236.091 458.308 236.531C457.63 236.972 456.863 237.192 456.006 237.192C455.381 237.192 454.863 237.088 454.451 236.879C454.039 236.671 453.708 236.42 453.457 236.126C453.21 235.828 453.019 235.546 452.881 235.281H452.775V241.091H450.204ZM452.725 231.545C452.725 232.251 452.825 232.869 453.023 233.399C453.227 233.929 453.518 234.344 453.897 234.642C454.281 234.936 454.745 235.082 455.289 235.082C455.857 235.082 456.333 234.931 456.717 234.628C457.1 234.32 457.389 233.901 457.583 233.371C457.782 232.836 457.881 232.227 457.881 231.545C457.881 230.868 457.784 230.267 457.59 229.741C457.396 229.216 457.107 228.804 456.724 228.506C456.34 228.207 455.862 228.058 455.289 228.058C454.74 228.058 454.273 228.203 453.89 228.491C453.506 228.78 453.215 229.185 453.016 229.706C452.822 230.227 452.725 230.84 452.725 231.545ZM469.657 232.412V226.091H472.228V237H469.735V235.061H469.621C469.375 235.672 468.97 236.171 468.407 236.56C467.848 236.948 467.159 237.142 466.34 237.142C465.625 237.142 464.993 236.983 464.444 236.666C463.899 236.344 463.473 235.878 463.165 235.267C462.858 234.652 462.704 233.908 462.704 233.037V226.091H465.275V232.639C465.275 233.33 465.464 233.88 465.843 234.287C466.222 234.694 466.719 234.898 467.335 234.898C467.713 234.898 468.08 234.805 468.435 234.621C468.79 234.436 469.082 234.161 469.309 233.797C469.541 233.428 469.657 232.966 469.657 232.412ZM474.872 241.091V226.091H477.4V227.895H477.549C477.682 227.63 477.869 227.348 478.11 227.05C478.352 226.747 478.679 226.489 479.091 226.276C479.502 226.058 480.028 225.949 480.667 225.949C481.51 225.949 482.27 226.164 482.947 226.595C483.629 227.021 484.169 227.653 484.566 228.491C484.969 229.325 485.17 230.348 485.17 231.56C485.17 232.758 484.974 233.776 484.581 234.614C484.188 235.452 483.653 236.091 482.975 236.531C482.298 236.972 481.531 237.192 480.674 237.192C480.049 237.192 479.531 237.088 479.119 236.879C478.707 236.671 478.376 236.42 478.125 236.126C477.878 235.828 477.687 235.546 477.549 235.281H477.443V241.091H474.872ZM477.393 231.545C477.393 232.251 477.493 232.869 477.691 233.399C477.895 233.929 478.186 234.344 478.565 234.642C478.949 234.936 479.413 235.082 479.957 235.082C480.525 235.082 481.001 234.931 481.385 234.628C481.768 234.32 482.057 233.901 482.251 233.371C482.45 232.836 482.549 232.227 482.549 231.545C482.549 230.868 482.452 230.267 482.258 229.741C482.064 229.216 481.775 228.804 481.392 228.506C481.008 228.207 480.53 228.058 479.957 228.058C479.408 228.058 478.941 228.203 478.558 228.491C478.174 228.78 477.883 229.185 477.684 229.706C477.49 230.227 477.393 230.84 477.393 231.545Z" fill="#666666"/>
<rect x="424" y="491" width="572" height="80" rx="8" fill="#EEEEEE"/>
<rect x="424" y="587" width="572" height="80" rx="8" fill="#EEEEEE"/>
<rect x="424" y="683" width="572" height="80" rx="8" fill="#EEEEEE"/>
<path d="M430.854 462.114H433.24L434.653 463.946L435.662 465.139L438.084 468.25H435.527L433.879 466.162L433.176 465.168L430.854 462.114ZM438.432 459.727C438.432 461.295 438.138 462.637 437.551 463.754C436.969 464.867 436.173 465.719 435.165 466.311C434.161 466.903 433.022 467.199 431.749 467.199C430.475 467.199 429.334 466.903 428.325 466.311C427.321 465.714 426.526 464.86 425.939 463.747C425.357 462.63 425.065 461.29 425.065 459.727C425.065 458.16 425.357 456.82 425.939 455.707C426.526 454.59 427.321 453.735 428.325 453.143C429.334 452.552 430.475 452.256 431.749 452.256C433.022 452.256 434.161 452.552 435.165 453.143C436.173 453.735 436.969 454.59 437.551 455.707C438.138 456.82 438.432 458.16 438.432 459.727ZM435.783 459.727C435.783 458.624 435.61 457.694 435.264 456.936C434.923 456.174 434.45 455.598 433.844 455.21C433.238 454.817 432.539 454.621 431.749 454.621C430.958 454.621 430.259 454.817 429.653 455.21C429.047 455.598 428.571 456.174 428.226 456.936C427.885 457.694 427.714 458.624 427.714 459.727C427.714 460.83 427.885 461.763 428.226 462.526C428.571 463.283 429.047 463.858 429.653 464.251C430.259 464.64 430.958 464.834 431.749 464.834C432.539 464.834 433.238 464.64 433.844 464.251C434.45 463.858 434.923 463.283 435.264 462.526C435.61 461.763 435.783 460.83 435.783 459.727ZM447.782 462.412V456.091H450.353V467H447.86V465.061H447.746C447.5 465.672 447.095 466.171 446.532 466.56C445.973 466.948 445.284 467.142 444.465 467.142C443.75 467.142 443.118 466.983 442.569 466.666C442.024 466.344 441.598 465.878 441.29 465.267C440.983 464.652 440.829 463.908 440.829 463.037V456.091H443.4V462.639C443.4 463.33 443.589 463.88 443.968 464.287C444.347 464.694 444.844 464.898 445.46 464.898C445.838 464.898 446.205 464.805 446.56 464.621C446.915 464.436 447.207 464.161 447.434 463.797C447.666 463.428 447.782 462.966 447.782 462.412ZM457.826 467.213C456.733 467.213 455.788 466.986 454.993 466.531C454.202 466.072 453.593 465.423 453.167 464.585C452.741 463.742 452.528 462.75 452.528 461.609C452.528 460.487 452.741 459.502 453.167 458.655C453.598 457.803 454.199 457.14 454.971 456.666C455.743 456.188 456.65 455.949 457.691 455.949C458.364 455.949 458.998 456.058 459.595 456.276C460.196 456.489 460.726 456.82 461.186 457.27C461.65 457.72 462.014 458.293 462.279 458.989C462.545 459.68 462.677 460.504 462.677 461.46V462.249H453.735V460.516H460.213C460.208 460.023 460.101 459.585 459.893 459.202C459.685 458.813 459.394 458.508 459.02 458.286C458.65 458.063 458.219 457.952 457.727 457.952C457.201 457.952 456.74 458.08 456.342 458.335C455.944 458.586 455.634 458.918 455.412 459.33C455.194 459.737 455.083 460.184 455.078 460.672V462.185C455.078 462.819 455.194 463.364 455.426 463.818C455.658 464.268 455.982 464.614 456.399 464.855C456.815 465.092 457.303 465.21 457.862 465.21C458.236 465.21 458.574 465.158 458.877 465.054C459.181 464.945 459.443 464.786 459.666 464.578C459.888 464.37 460.056 464.112 460.17 463.804L462.571 464.074C462.419 464.708 462.13 465.262 461.704 465.736C461.283 466.205 460.743 466.569 460.085 466.83C459.427 467.085 458.674 467.213 457.826 467.213ZM473.474 458.974L471.131 459.23C471.064 458.993 470.948 458.771 470.783 458.562C470.622 458.354 470.404 458.186 470.129 458.058C469.855 457.93 469.518 457.866 469.121 457.866C468.586 457.866 468.136 457.982 467.771 458.214C467.411 458.446 467.234 458.747 467.239 459.116C467.234 459.434 467.35 459.692 467.587 459.891C467.828 460.089 468.226 460.253 468.78 460.381L470.641 460.778C471.673 461.001 472.44 461.354 472.942 461.837C473.448 462.32 473.704 462.952 473.709 463.733C473.704 464.42 473.503 465.026 473.105 465.551C472.712 466.072 472.165 466.479 471.464 466.773C470.764 467.066 469.959 467.213 469.05 467.213C467.714 467.213 466.64 466.934 465.825 466.375C465.011 465.812 464.526 465.028 464.369 464.024L466.876 463.783C466.99 464.275 467.232 464.647 467.601 464.898C467.97 465.149 468.451 465.274 469.043 465.274C469.653 465.274 470.143 465.149 470.513 464.898C470.887 464.647 471.074 464.337 471.074 463.967C471.074 463.655 470.953 463.397 470.712 463.193C470.475 462.99 470.106 462.833 469.604 462.724L467.743 462.334C466.696 462.116 465.922 461.749 465.42 461.233C464.919 460.712 464.67 460.054 464.675 459.259C464.67 458.586 464.852 458.004 465.222 457.511C465.596 457.014 466.114 456.631 466.777 456.361C467.445 456.086 468.214 455.949 469.085 455.949C470.364 455.949 471.37 456.221 472.104 456.766C472.842 457.31 473.299 458.046 473.474 458.974ZM481.276 456.091V458.08H475.005V456.091H481.276ZM476.553 453.477H479.124V463.719C479.124 464.064 479.176 464.33 479.281 464.514C479.389 464.694 479.531 464.817 479.707 464.884C479.882 464.95 480.076 464.983 480.289 464.983C480.45 464.983 480.597 464.971 480.729 464.947C480.867 464.924 480.971 464.902 481.042 464.884L481.475 466.893C481.338 466.941 481.141 466.993 480.886 467.05C480.635 467.107 480.327 467.14 479.962 467.149C479.318 467.168 478.738 467.071 478.222 466.858C477.706 466.64 477.297 466.304 476.994 465.849C476.695 465.395 476.549 464.827 476.553 464.145V453.477ZM491.892 458.974L489.549 459.23C489.482 458.993 489.366 458.771 489.201 458.562C489.04 458.354 488.822 458.186 488.547 458.058C488.273 457.93 487.936 457.866 487.539 457.866C487.004 457.866 486.554 457.982 486.189 458.214C485.829 458.446 485.652 458.747 485.657 459.116C485.652 459.434 485.768 459.692 486.005 459.891C486.246 460.089 486.644 460.253 487.198 460.381L489.059 460.778C490.091 461.001 490.858 461.354 491.36 461.837C491.866 462.32 492.122 462.952 492.127 463.733C492.122 464.42 491.921 465.026 491.523 465.551C491.13 466.072 490.583 466.479 489.882 466.773C489.182 467.066 488.377 467.213 487.468 467.213C486.132 467.213 485.058 466.934 484.243 466.375C483.429 465.812 482.944 465.028 482.787 464.024L485.294 463.783C485.408 464.275 485.65 464.647 486.019 464.898C486.388 465.149 486.869 465.274 487.461 465.274C488.071 465.274 488.561 465.149 488.931 464.898C489.305 464.647 489.492 464.337 489.492 463.967C489.492 463.655 489.371 463.397 489.13 463.193C488.893 462.99 488.524 462.833 488.022 462.724L486.161 462.334C485.114 462.116 484.34 461.749 483.838 461.233C483.337 460.712 483.088 460.054 483.093 459.259C483.088 458.586 483.27 458.004 483.64 457.511C484.014 457.014 484.532 456.631 485.195 456.361C485.863 456.086 486.632 455.949 487.503 455.949C488.782 455.949 489.788 456.221 490.522 456.766C491.26 457.31 491.717 458.046 491.892 458.974Z" fill="#666666"/>
<path d="M425.435 302V287.455H430.889C432.007 287.455 432.944 287.649 433.702 288.037C434.464 288.425 435.039 288.97 435.428 289.67C435.821 290.366 436.017 291.179 436.017 292.107C436.017 293.039 435.818 293.849 435.42 294.536C435.027 295.217 434.447 295.745 433.68 296.119C432.913 296.489 431.971 296.673 430.854 296.673H426.969V294.486H430.499C431.152 294.486 431.687 294.396 432.104 294.216C432.52 294.031 432.828 293.764 433.027 293.413C433.231 293.058 433.332 292.623 433.332 292.107C433.332 291.59 433.231 291.15 433.027 290.786C432.823 290.416 432.513 290.137 432.097 289.947C431.68 289.753 431.143 289.656 430.484 289.656H428.07V302H425.435ZM432.949 295.409L436.55 302H433.609L430.072 295.409H432.949ZM443.002 302.213C441.908 302.213 440.964 301.986 440.168 301.531C439.378 301.072 438.769 300.423 438.343 299.585C437.917 298.742 437.704 297.75 437.704 296.609C437.704 295.487 437.917 294.502 438.343 293.655C438.774 292.803 439.375 292.14 440.147 291.666C440.919 291.188 441.826 290.949 442.867 290.949C443.54 290.949 444.174 291.058 444.771 291.276C445.372 291.489 445.902 291.82 446.362 292.27C446.826 292.72 447.19 293.293 447.455 293.989C447.72 294.68 447.853 295.504 447.853 296.46V297.249H438.911V295.516H445.388C445.384 295.023 445.277 294.585 445.069 294.202C444.861 293.813 444.569 293.508 444.195 293.286C443.826 293.063 443.395 292.952 442.903 292.952C442.377 292.952 441.915 293.08 441.518 293.335C441.12 293.586 440.81 293.918 440.587 294.33C440.37 294.737 440.258 295.184 440.254 295.672V297.185C440.254 297.819 440.37 298.364 440.602 298.818C440.834 299.268 441.158 299.614 441.575 299.855C441.991 300.092 442.479 300.21 443.038 300.21C443.412 300.21 443.75 300.158 444.053 300.054C444.356 299.945 444.619 299.786 444.842 299.578C445.064 299.37 445.232 299.112 445.346 298.804L447.746 299.074C447.595 299.708 447.306 300.262 446.88 300.736C446.459 301.205 445.919 301.569 445.261 301.83C444.603 302.085 443.85 302.213 443.002 302.213ZM452.221 302L449.138 291.091H451.759L453.677 298.761H453.776L455.737 291.091H458.329L460.289 298.719H460.396L462.285 291.091H464.913L461.823 302H459.146L457.1 294.628H456.951L454.906 302H452.221ZM469.847 302.22C469.156 302.22 468.533 302.097 467.979 301.851C467.43 301.6 466.994 301.231 466.672 300.743C466.355 300.255 466.196 299.654 466.196 298.939C466.196 298.323 466.31 297.814 466.537 297.412C466.765 297.009 467.075 296.688 467.468 296.446C467.861 296.205 468.303 296.022 468.796 295.899C469.293 295.771 469.807 295.679 470.337 295.622C470.976 295.556 471.495 295.497 471.892 295.445C472.29 295.388 472.579 295.303 472.759 295.189C472.944 295.071 473.036 294.888 473.036 294.642V294.599C473.036 294.064 472.877 293.65 472.56 293.357C472.243 293.063 471.786 292.916 471.189 292.916C470.56 292.916 470.06 293.054 469.691 293.328C469.326 293.603 469.08 293.927 468.952 294.301L466.551 293.96C466.741 293.297 467.053 292.743 467.489 292.298C467.925 291.848 468.457 291.512 469.087 291.29C469.717 291.062 470.413 290.949 471.175 290.949C471.701 290.949 472.224 291.01 472.745 291.134C473.266 291.257 473.741 291.46 474.172 291.744C474.603 292.024 474.949 292.405 475.209 292.888C475.474 293.371 475.607 293.974 475.607 294.699V302H473.135V300.501H473.05C472.894 300.804 472.674 301.089 472.39 301.354C472.11 301.614 471.757 301.825 471.331 301.986C470.91 302.142 470.415 302.22 469.847 302.22ZM470.515 300.331C471.031 300.331 471.478 300.229 471.857 300.026C472.236 299.817 472.527 299.543 472.73 299.202C472.939 298.861 473.043 298.489 473.043 298.087V296.801C472.962 296.867 472.825 296.929 472.631 296.986C472.442 297.043 472.229 297.092 471.992 297.135C471.755 297.178 471.521 297.215 471.289 297.249C471.057 297.282 470.855 297.31 470.685 297.334C470.301 297.386 469.958 297.471 469.655 297.589C469.352 297.708 469.113 297.874 468.938 298.087C468.763 298.295 468.675 298.565 468.675 298.896C468.675 299.37 468.848 299.727 469.194 299.969C469.539 300.21 469.98 300.331 470.515 300.331ZM478.192 302V291.091H480.685V292.909H480.799C480.998 292.279 481.338 291.794 481.821 291.453C482.309 291.107 482.865 290.935 483.49 290.935C483.632 290.935 483.791 290.942 483.966 290.956C484.146 290.965 484.295 290.982 484.414 291.006V293.371C484.305 293.333 484.132 293.3 483.895 293.271C483.663 293.238 483.438 293.222 483.221 293.222C482.752 293.222 482.33 293.323 481.956 293.527C481.587 293.726 481.296 294.003 481.083 294.358C480.87 294.713 480.763 295.123 480.763 295.587V302H478.192ZM489.721 302.192C488.864 302.192 488.097 301.972 487.42 301.531C486.743 301.091 486.208 300.452 485.815 299.614C485.422 298.776 485.225 297.758 485.225 296.56C485.225 295.348 485.424 294.325 485.822 293.491C486.224 292.653 486.766 292.021 487.448 291.595C488.13 291.164 488.89 290.949 489.728 290.949C490.367 290.949 490.893 291.058 491.305 291.276C491.717 291.489 492.043 291.747 492.285 292.05C492.526 292.348 492.713 292.63 492.846 292.895H492.952V287.455H495.531V302H493.002V300.281H492.846C492.713 300.546 492.522 300.828 492.271 301.126C492.02 301.42 491.688 301.671 491.276 301.879C490.864 302.088 490.346 302.192 489.721 302.192ZM490.438 300.082C490.983 300.082 491.447 299.936 491.83 299.642C492.214 299.344 492.505 298.929 492.704 298.399C492.903 297.869 493.002 297.251 493.002 296.545C493.002 295.84 492.903 295.227 492.704 294.706C492.51 294.185 492.221 293.78 491.837 293.491C491.459 293.203 490.992 293.058 490.438 293.058C489.865 293.058 489.387 293.207 489.004 293.506C488.62 293.804 488.331 294.216 488.137 294.741C487.943 295.267 487.846 295.868 487.846 296.545C487.846 297.227 487.943 297.836 488.137 298.371C488.336 298.901 488.627 299.32 489.011 299.628C489.399 299.931 489.875 300.082 490.438 300.082ZM506.892 293.974L504.549 294.23C504.482 293.993 504.366 293.771 504.201 293.562C504.04 293.354 503.822 293.186 503.547 293.058C503.273 292.93 502.936 292.866 502.539 292.866C502.004 292.866 501.554 292.982 501.189 293.214C500.829 293.446 500.652 293.747 500.657 294.116C500.652 294.434 500.768 294.692 501.005 294.891C501.246 295.089 501.644 295.253 502.198 295.381L504.059 295.778C505.091 296.001 505.858 296.354 506.36 296.837C506.866 297.32 507.122 297.952 507.127 298.733C507.122 299.42 506.921 300.026 506.523 300.551C506.13 301.072 505.583 301.479 504.882 301.773C504.182 302.066 503.377 302.213 502.468 302.213C501.132 302.213 500.058 301.934 499.243 301.375C498.429 300.812 497.944 300.028 497.787 299.024L500.294 298.783C500.408 299.275 500.65 299.647 501.019 299.898C501.388 300.149 501.869 300.274 502.461 300.274C503.071 300.274 503.561 300.149 503.931 299.898C504.305 299.647 504.492 299.337 504.492 298.967C504.492 298.655 504.371 298.397 504.13 298.193C503.893 297.99 503.524 297.833 503.022 297.724L501.161 297.334C500.114 297.116 499.34 296.749 498.838 296.233C498.337 295.712 498.088 295.054 498.093 294.259C498.088 293.586 498.27 293.004 498.64 292.511C499.014 292.014 499.532 291.631 500.195 291.361C500.863 291.086 501.632 290.949 502.503 290.949C503.782 290.949 504.788 291.221 505.522 291.766C506.26 292.31 506.717 293.046 506.892 293.974Z" fill="#666666"/>
<rect x="424" y="326" width="572" height="99" rx="8" fill="#EEEEEE"/>
</svg>
