<svg width="1420" height="900" viewBox="0 0 1420 900" fill="none" xmlns="http://www.w3.org/2000/svg">
<g clip-path="url(#clip0_28_98)">
<mask id="path-1-inside-1_28_98" fill="white">
<rect width="1420" height="900" rx="8"/>
</mask>
<rect width="1420" height="900" rx="8" fill="#FEFEFE" stroke="#EDF1F5" stroke-width="20" mask="url(#path-1-inside-1_28_98)"/>
<rect x="96" y="136" width="32" height="32" fill="#EDF1F5"/>
<path d="M0 8C0 3.58172 3.58172 0 8 0H1412C1416.42 0 1420 3.58172 1420 8V80H0V8Z" fill="#EDF1F5"/>
<circle cx="42" cy="40" r="10" fill="#E75545"/>
<circle cx="74" cy="40" r="10" fill="#FFC600"/>
<circle cx="106" cy="40" r="10" fill="#00B68A"/>
<rect x="138" y="28" width="1092" height="24" rx="4" fill="#F8FAFB"/>
<rect x="96" y="230" width="381" height="20" rx="10" fill="#EEEEEE"/>
<rect x="96" y="390" width="637.54" height="20" rx="10" fill="#EEEEEE"/>
<rect x="96" y="550" width="762" height="20" rx="10" fill="#EEEEEE"/>
<rect x="96" y="470" width="355.6" height="20" rx="10" fill="#EEEEEE"/>
<rect x="477" y="470" width="304.8" height="20" rx="10" fill="#EEEEEE"/>
<rect x="96" y="310" width="190.5" height="20" rx="10" fill="#EEEEEE"/>
<rect x="311.9" y="310" width="254" height="20" rx="10" fill="#EEEEEE"/>
<rect x="591.3" y="310" width="203.2" height="20" rx="10" fill="#EEEEEE"/>
<rect x="96" y="390" width="381" height="20" rx="10" fill="#EEEEEE"/>
<rect x="96" y="550" width="637.54" height="20" rx="10" fill="#EEEEEE"/>
<rect x="96" y="710" width="762" height="20" rx="10" fill="#EEEEEE"/>
<rect x="96" y="630" width="355.6" height="20" rx="10" fill="#EEEEEE"/>
<rect x="477" y="630" width="304.8" height="20" rx="10" fill="#EEEEEE"/>
<rect x="96" y="470" width="190.5" height="20" rx="10" fill="#EEEEEE"/>
<rect x="311.9" y="470" width="254" height="20" rx="10" fill="#EEEEEE"/>
<rect x="591.3" y="470" width="203.2" height="20" rx="10" fill="#EEEEEE"/>
<path d="M816 81H1419V899H816C812.134 899 809 895.866 809 892V88C809 84.134 812.134 81 816 81Z" fill="white" stroke="#8E86E0" stroke-width="2"/>
<line x1="808" y1="161" x2="1420" y2="161" stroke="#8E86E0" stroke-width="2"/>
<circle cx="1380" cy="121" r="19.5" fill="white" stroke="#AAAAAA"/>
<path d="M1386.71 125.973C1387.2 126.462 1387.2 127.223 1386.71 127.712C1386.47 127.957 1386.17 128.065 1385.84 128.065C1385.52 128.065 1385.22 127.957 1384.97 127.712L1380 122.739L1375.03 127.712C1374.78 127.957 1374.48 128.065 1374.16 128.065C1373.83 128.065 1373.53 127.957 1373.29 127.712C1372.8 127.223 1372.8 126.462 1373.29 125.973L1378.26 121L1373.29 116.027C1372.8 115.538 1372.8 114.777 1373.29 114.288C1373.78 113.799 1374.54 113.799 1375.03 114.288L1380 119.261L1384.97 114.288C1385.46 113.799 1386.22 113.799 1386.71 114.288C1387.2 114.777 1387.2 115.538 1386.71 116.027L1381.74 121L1386.71 125.973Z" fill="#AAAAAA"/>
<path d="M837.339 118.453C837.273 117.833 836.994 117.35 836.501 117.004C836.014 116.659 835.379 116.486 834.598 116.486C834.049 116.486 833.578 116.569 833.185 116.734C832.792 116.9 832.491 117.125 832.283 117.409C832.074 117.693 831.968 118.018 831.963 118.382C831.963 118.685 832.032 118.948 832.169 119.17C832.311 119.393 832.503 119.582 832.744 119.739C832.986 119.89 833.253 120.018 833.547 120.122C833.84 120.226 834.136 120.314 834.435 120.385L835.798 120.726C836.348 120.854 836.875 121.027 837.382 121.244C837.893 121.462 838.35 121.737 838.753 122.068C839.16 122.4 839.482 122.8 839.719 123.268C839.955 123.737 840.074 124.286 840.074 124.916C840.074 125.768 839.856 126.519 839.42 127.168C838.985 127.812 838.355 128.316 837.531 128.68C836.712 129.04 835.72 129.22 834.555 129.22C833.424 129.22 832.441 129.045 831.608 128.695C830.779 128.344 830.131 127.833 829.662 127.161C829.198 126.488 828.947 125.669 828.909 124.703H831.501C831.539 125.21 831.696 125.631 831.97 125.967C832.245 126.304 832.602 126.554 833.043 126.72C833.488 126.886 833.985 126.969 834.534 126.969C835.107 126.969 835.609 126.884 836.04 126.713C836.475 126.538 836.816 126.296 837.062 125.989C837.309 125.676 837.434 125.312 837.439 124.895C837.434 124.516 837.323 124.204 837.105 123.957C836.887 123.706 836.582 123.498 836.189 123.332C835.801 123.162 835.346 123.01 834.825 122.878L833.17 122.452C831.973 122.144 831.026 121.678 830.33 121.053C829.638 120.423 829.293 119.587 829.293 118.545C829.293 117.688 829.525 116.938 829.989 116.294C830.457 115.65 831.094 115.151 831.899 114.795C832.704 114.436 833.616 114.256 834.634 114.256C835.666 114.256 836.57 114.436 837.347 114.795C838.128 115.151 838.741 115.645 839.186 116.28C839.631 116.91 839.861 117.634 839.875 118.453H837.339ZM842.309 129V118.091H844.88V129H842.309ZM843.602 116.543C843.195 116.543 842.844 116.408 842.551 116.138C842.257 115.863 842.11 115.534 842.11 115.151C842.11 114.762 842.257 114.433 842.551 114.163C842.844 113.889 843.195 113.751 843.602 113.751C844.014 113.751 844.364 113.889 844.653 114.163C844.947 114.433 845.093 114.762 845.093 115.151C845.093 115.534 844.947 115.863 844.653 116.138C844.364 116.408 844.014 116.543 843.602 116.543ZM851.572 129.192C850.715 129.192 849.948 128.972 849.271 128.531C848.594 128.091 848.059 127.452 847.666 126.614C847.273 125.776 847.077 124.758 847.077 123.56C847.077 122.348 847.276 121.325 847.673 120.491C848.076 119.653 848.618 119.021 849.3 118.595C849.982 118.164 850.741 117.949 851.58 117.949C852.219 117.949 852.744 118.058 853.156 118.276C853.568 118.489 853.895 118.747 854.136 119.05C854.378 119.348 854.565 119.63 854.697 119.895H854.804V114.455H857.382V129H854.854V127.281H854.697C854.565 127.546 854.373 127.828 854.122 128.126C853.871 128.42 853.54 128.671 853.128 128.879C852.716 129.088 852.197 129.192 851.572 129.192ZM852.29 127.082C852.834 127.082 853.298 126.936 853.682 126.642C854.065 126.344 854.357 125.929 854.555 125.399C854.754 124.869 854.854 124.251 854.854 123.545C854.854 122.84 854.754 122.227 854.555 121.706C854.361 121.185 854.072 120.78 853.689 120.491C853.31 120.203 852.844 120.058 852.29 120.058C851.717 120.058 851.239 120.207 850.855 120.506C850.472 120.804 850.183 121.216 849.989 121.741C849.795 122.267 849.697 122.868 849.697 123.545C849.697 124.227 849.795 124.836 849.989 125.371C850.188 125.901 850.479 126.32 850.862 126.628C851.25 126.931 851.726 127.082 852.29 127.082ZM864.951 129.213C863.858 129.213 862.913 128.986 862.118 128.531C861.327 128.072 860.718 127.423 860.292 126.585C859.866 125.742 859.653 124.75 859.653 123.609C859.653 122.487 859.866 121.502 860.292 120.655C860.723 119.803 861.324 119.14 862.096 118.666C862.868 118.188 863.775 117.949 864.816 117.949C865.489 117.949 866.123 118.058 866.72 118.276C867.321 118.489 867.851 118.82 868.311 119.27C868.775 119.72 869.139 120.293 869.404 120.989C869.67 121.68 869.802 122.504 869.802 123.46V124.249H860.86V122.516H867.338C867.333 122.023 867.226 121.585 867.018 121.202C866.81 120.813 866.519 120.508 866.145 120.286C865.775 120.063 865.344 119.952 864.852 119.952C864.326 119.952 863.865 120.08 863.467 120.335C863.069 120.586 862.759 120.918 862.537 121.33C862.319 121.737 862.208 122.184 862.203 122.672V124.185C862.203 124.819 862.319 125.364 862.551 125.818C862.783 126.268 863.107 126.614 863.524 126.855C863.94 127.092 864.428 127.21 864.987 127.21C865.361 127.21 865.699 127.158 866.002 127.054C866.306 126.945 866.568 126.786 866.791 126.578C867.013 126.37 867.181 126.112 867.295 125.804L869.696 126.074C869.544 126.708 869.255 127.262 868.829 127.736C868.408 128.205 867.868 128.569 867.21 128.83C866.552 129.085 865.799 129.213 864.951 129.213ZM872.091 129V114.455H874.662V119.895H874.768C874.901 119.63 875.088 119.348 875.33 119.05C875.571 118.747 875.898 118.489 876.31 118.276C876.722 118.058 877.247 117.949 877.886 117.949C878.729 117.949 879.489 118.164 880.166 118.595C880.848 119.021 881.388 119.653 881.786 120.491C882.188 121.325 882.389 122.348 882.389 123.56C882.389 124.758 882.193 125.776 881.8 126.614C881.407 127.452 880.872 128.091 880.195 128.531C879.518 128.972 878.75 129.192 877.893 129.192C877.268 129.192 876.75 129.088 876.338 128.879C875.926 128.671 875.595 128.42 875.344 128.126C875.098 127.828 874.906 127.546 874.768 127.281H874.619V129H872.091ZM874.612 123.545C874.612 124.251 874.712 124.869 874.911 125.399C875.114 125.929 875.405 126.344 875.784 126.642C876.168 126.936 876.632 127.082 877.176 127.082C877.744 127.082 878.22 126.931 878.604 126.628C878.987 126.32 879.276 125.901 879.47 125.371C879.669 124.836 879.768 124.227 879.768 123.545C879.768 122.868 879.671 122.267 879.477 121.741C879.283 121.216 878.994 120.804 878.611 120.506C878.227 120.207 877.749 120.058 877.176 120.058C876.627 120.058 876.161 120.203 875.777 120.491C875.393 120.78 875.102 121.185 874.903 121.706C874.709 122.227 874.612 122.84 874.612 123.545ZM887.714 129.22C887.023 129.22 886.4 129.097 885.846 128.851C885.297 128.6 884.861 128.231 884.539 127.743C884.222 127.255 884.064 126.654 884.064 125.939C884.064 125.323 884.177 124.814 884.404 124.412C884.632 124.009 884.942 123.688 885.335 123.446C885.728 123.205 886.171 123.022 886.663 122.899C887.16 122.771 887.674 122.679 888.204 122.622C888.843 122.556 889.362 122.497 889.76 122.445C890.157 122.388 890.446 122.303 890.626 122.189C890.811 122.071 890.903 121.888 890.903 121.642V121.599C890.903 121.064 890.744 120.65 890.427 120.357C890.11 120.063 889.653 119.916 889.056 119.916C888.427 119.916 887.927 120.054 887.558 120.328C887.193 120.603 886.947 120.927 886.819 121.301L884.419 120.96C884.608 120.297 884.921 119.743 885.356 119.298C885.792 118.848 886.324 118.512 886.954 118.29C887.584 118.062 888.28 117.949 889.042 117.949C889.568 117.949 890.091 118.01 890.612 118.134C891.133 118.257 891.609 118.46 892.039 118.744C892.47 119.024 892.816 119.405 893.076 119.888C893.342 120.371 893.474 120.974 893.474 121.699V129H891.002V127.501H890.917C890.761 127.804 890.541 128.089 890.257 128.354C889.977 128.614 889.625 128.825 889.199 128.986C888.777 129.142 888.282 129.22 887.714 129.22ZM888.382 127.331C888.898 127.331 889.345 127.229 889.724 127.026C890.103 126.817 890.394 126.543 890.598 126.202C890.806 125.861 890.91 125.489 890.91 125.087V123.801C890.83 123.867 890.692 123.929 890.498 123.986C890.309 124.043 890.096 124.092 889.859 124.135C889.622 124.178 889.388 124.215 889.156 124.249C888.924 124.282 888.723 124.31 888.552 124.334C888.169 124.386 887.825 124.471 887.522 124.589C887.219 124.708 886.98 124.874 886.805 125.087C886.63 125.295 886.542 125.565 886.542 125.896C886.542 126.37 886.715 126.727 887.061 126.969C887.406 127.21 887.847 127.331 888.382 127.331ZM896.059 129V118.091H898.552V119.909H898.666C898.865 119.279 899.206 118.794 899.689 118.453C900.176 118.107 900.733 117.935 901.358 117.935C901.5 117.935 901.658 117.942 901.833 117.956C902.013 117.965 902.163 117.982 902.281 118.006V120.371C902.172 120.333 901.999 120.3 901.762 120.271C901.53 120.238 901.306 120.222 901.088 120.222C900.619 120.222 900.198 120.323 899.824 120.527C899.454 120.726 899.163 121.003 898.95 121.358C898.737 121.713 898.63 122.123 898.63 122.587V129H896.059Z" fill="#666666"/>
<rect x="828" y="477.7" width="572" height="109.333" rx="8" fill="#EEEEEE"/>
<rect x="828" y="608.9" width="572" height="109.333" rx="8" fill="#EEEEEE"/>
<rect x="828" y="740.1" width="572" height="109.333" rx="8" fill="#EEEEEE"/>
<path d="M834.854 437.947H837.24L838.653 439.779L839.662 440.972L842.084 444.083H839.527L837.879 441.995L837.176 441.001L834.854 437.947ZM842.432 435.561C842.432 437.128 842.138 438.47 841.551 439.588C840.969 440.7 840.173 441.552 839.165 442.144C838.161 442.736 837.022 443.032 835.749 443.032C834.475 443.032 833.334 442.736 832.325 442.144C831.321 441.548 830.526 440.693 829.939 439.58C829.357 438.463 829.065 437.123 829.065 435.561C829.065 433.993 829.357 432.653 829.939 431.541C830.526 430.423 831.321 429.569 832.325 428.977C833.334 428.385 834.475 428.089 835.749 428.089C837.022 428.089 838.161 428.385 839.165 428.977C840.173 429.569 840.969 430.423 841.551 431.541C842.138 432.653 842.432 433.993 842.432 435.561ZM839.783 435.561C839.783 434.457 839.61 433.527 839.264 432.769C838.923 432.007 838.45 431.432 837.844 431.043C837.238 430.65 836.539 430.454 835.749 430.454C834.958 430.454 834.259 430.65 833.653 431.043C833.047 431.432 832.571 432.007 832.226 432.769C831.885 433.527 831.714 434.457 831.714 435.561C831.714 436.664 831.885 437.597 832.226 438.359C832.571 439.116 833.047 439.692 833.653 440.085C834.259 440.473 834.958 440.667 835.749 440.667C836.539 440.667 837.238 440.473 837.844 440.085C838.45 439.692 838.923 439.116 839.264 438.359C839.61 437.597 839.783 436.664 839.783 435.561ZM851.782 438.245V431.924H854.353V442.833H851.86V440.894H851.746C851.5 441.505 851.095 442.005 850.532 442.393C849.973 442.781 849.284 442.975 848.465 442.975C847.75 442.975 847.118 442.817 846.569 442.499C846.024 442.177 845.598 441.711 845.29 441.1C844.983 440.485 844.829 439.741 844.829 438.87V431.924H847.4V438.472C847.4 439.164 847.589 439.713 847.968 440.12C848.347 440.527 848.844 440.731 849.46 440.731C849.838 440.731 850.205 440.639 850.56 440.454C850.915 440.269 851.207 439.995 851.434 439.63C851.666 439.261 851.782 438.799 851.782 438.245ZM861.826 443.046C860.733 443.046 859.788 442.819 858.993 442.365C858.202 441.905 857.593 441.257 857.167 440.418C856.741 439.576 856.528 438.584 856.528 437.443C856.528 436.32 856.741 435.336 857.167 434.488C857.598 433.636 858.199 432.973 858.971 432.499C859.743 432.021 860.65 431.782 861.691 431.782C862.364 431.782 862.998 431.891 863.595 432.109C864.196 432.322 864.726 432.653 865.186 433.103C865.65 433.553 866.014 434.126 866.279 434.822C866.545 435.513 866.677 436.337 866.677 437.293V438.082H857.735V436.349H864.213C864.208 435.856 864.101 435.418 863.893 435.035C863.685 434.647 863.394 434.341 863.02 434.119C862.65 433.896 862.219 433.785 861.727 433.785C861.201 433.785 860.74 433.913 860.342 434.168C859.944 434.419 859.634 434.751 859.412 435.163C859.194 435.57 859.083 436.017 859.078 436.505V438.018C859.078 438.652 859.194 439.197 859.426 439.651C859.658 440.101 859.982 440.447 860.399 440.688C860.815 440.925 861.303 441.043 861.862 441.043C862.236 441.043 862.574 440.991 862.877 440.887C863.181 440.778 863.443 440.62 863.666 440.411C863.888 440.203 864.056 439.945 864.17 439.637L866.571 439.907C866.419 440.542 866.13 441.096 865.704 441.569C865.283 442.038 864.743 442.402 864.085 442.663C863.427 442.918 862.674 443.046 861.826 443.046ZM877.474 434.808L875.131 435.063C875.064 434.827 874.948 434.604 874.783 434.396C874.622 434.187 874.404 434.019 874.129 433.891C873.855 433.764 873.518 433.7 873.121 433.7C872.586 433.7 872.136 433.816 871.771 434.048C871.411 434.28 871.234 434.58 871.239 434.95C871.234 435.267 871.35 435.525 871.587 435.724C871.828 435.923 872.226 436.086 872.78 436.214L874.641 436.612C875.673 436.834 876.44 437.187 876.942 437.67C877.448 438.153 877.704 438.785 877.709 439.566C877.704 440.253 877.503 440.859 877.105 441.384C876.712 441.905 876.165 442.312 875.464 442.606C874.764 442.9 873.959 443.046 873.05 443.046C871.714 443.046 870.64 442.767 869.825 442.208C869.011 441.645 868.526 440.861 868.369 439.857L870.876 439.616C870.99 440.108 871.232 440.48 871.601 440.731C871.97 440.982 872.451 441.107 873.043 441.107C873.653 441.107 874.143 440.982 874.513 440.731C874.887 440.48 875.074 440.17 875.074 439.801C875.074 439.488 874.953 439.23 874.712 439.026C874.475 438.823 874.106 438.667 873.604 438.558L871.743 438.167C870.696 437.949 869.922 437.582 869.42 437.066C868.919 436.545 868.67 435.887 868.675 435.092C868.67 434.419 868.852 433.837 869.222 433.345C869.596 432.847 870.114 432.464 870.777 432.194C871.445 431.919 872.214 431.782 873.085 431.782C874.364 431.782 875.37 432.054 876.104 432.599C876.842 433.143 877.299 433.88 877.474 434.808ZM885.276 431.924V433.913H879.005V431.924H885.276ZM880.553 429.311H883.124V439.552C883.124 439.898 883.176 440.163 883.281 440.347C883.389 440.527 883.531 440.65 883.707 440.717C883.882 440.783 884.076 440.816 884.289 440.816C884.45 440.816 884.597 440.804 884.729 440.781C884.867 440.757 884.971 440.736 885.042 440.717L885.475 442.727C885.338 442.774 885.141 442.826 884.886 442.883C884.635 442.94 884.327 442.973 883.962 442.982C883.318 443.001 882.738 442.904 882.222 442.691C881.706 442.473 881.297 442.137 880.994 441.683C880.695 441.228 880.549 440.66 880.553 439.978V429.311ZM895.892 434.808L893.549 435.063C893.482 434.827 893.366 434.604 893.201 434.396C893.04 434.187 892.822 434.019 892.547 433.891C892.273 433.764 891.936 433.7 891.539 433.7C891.004 433.7 890.554 433.816 890.189 434.048C889.829 434.28 889.652 434.58 889.657 434.95C889.652 435.267 889.768 435.525 890.005 435.724C890.246 435.923 890.644 436.086 891.198 436.214L893.059 436.612C894.091 436.834 894.858 437.187 895.36 437.67C895.866 438.153 896.122 438.785 896.127 439.566C896.122 440.253 895.921 440.859 895.523 441.384C895.13 441.905 894.583 442.312 893.882 442.606C893.182 442.9 892.377 443.046 891.468 443.046C890.132 443.046 889.058 442.767 888.243 442.208C887.429 441.645 886.944 440.861 886.787 439.857L889.294 439.616C889.408 440.108 889.65 440.48 890.019 440.731C890.388 440.982 890.869 441.107 891.461 441.107C892.071 441.107 892.561 440.982 892.931 440.731C893.305 440.48 893.492 440.17 893.492 439.801C893.492 439.488 893.371 439.23 893.13 439.026C892.893 438.823 892.524 438.667 892.022 438.558L890.161 438.167C889.114 437.949 888.34 437.582 887.838 437.066C887.337 436.545 887.088 435.887 887.093 435.092C887.088 434.419 887.27 433.837 887.64 433.345C888.014 432.847 888.532 432.464 889.195 432.194C889.863 431.919 890.632 431.782 891.503 431.782C892.782 431.782 893.788 432.054 894.522 432.599C895.26 433.143 895.717 433.88 895.892 434.808Z" fill="#666666"/>
<path d="M829.435 217.333V202.788H834.889C836.007 202.788 836.944 202.982 837.702 203.37C838.464 203.759 839.039 204.303 839.428 205.004C839.821 205.7 840.017 206.512 840.017 207.44C840.017 208.373 839.818 209.182 839.42 209.869C839.027 210.551 838.447 211.079 837.68 211.453C836.913 211.822 835.971 212.007 834.854 212.007H830.969V209.819H834.499C835.152 209.819 835.687 209.729 836.104 209.549C836.52 209.365 836.828 209.097 837.027 208.747C837.231 208.392 837.332 207.956 837.332 207.44C837.332 206.924 837.231 206.483 837.027 206.119C836.823 205.75 836.513 205.47 836.097 205.281C835.68 205.087 835.143 204.99 834.484 204.99H832.07V217.333H829.435ZM836.949 210.742L840.55 217.333H837.609L834.072 210.742H836.949ZM847.002 217.546C845.908 217.546 844.964 217.319 844.168 216.865C843.378 216.405 842.769 215.757 842.343 214.919C841.917 214.076 841.704 213.084 841.704 211.943C841.704 210.821 841.917 209.836 842.343 208.988C842.774 208.136 843.375 207.473 844.147 207C844.919 206.521 845.826 206.282 846.867 206.282C847.54 206.282 848.174 206.391 848.771 206.609C849.372 206.822 849.902 207.153 850.362 207.603C850.826 208.053 851.19 208.626 851.455 209.322C851.72 210.013 851.853 210.837 851.853 211.794V212.582H842.911V210.849H849.388C849.384 210.357 849.277 209.919 849.069 209.535C848.861 209.147 848.569 208.841 848.195 208.619C847.826 208.396 847.395 208.285 846.903 208.285C846.377 208.285 845.915 208.413 845.518 208.669C845.12 208.92 844.81 209.251 844.587 209.663C844.37 210.07 844.258 210.518 844.254 211.005V212.518C844.254 213.153 844.37 213.697 844.602 214.152C844.834 214.601 845.158 214.947 845.575 215.188C845.991 215.425 846.479 215.544 847.038 215.544C847.412 215.544 847.75 215.492 848.053 215.387C848.356 215.278 848.619 215.12 848.842 214.911C849.064 214.703 849.232 214.445 849.346 214.137L851.746 214.407C851.595 215.042 851.306 215.596 850.88 216.069C850.459 216.538 849.919 216.903 849.261 217.163C848.603 217.419 847.85 217.546 847.002 217.546ZM856.221 217.333L853.138 206.424H855.759L857.677 214.095H857.776L859.737 206.424H862.329L864.289 214.052H864.396L866.285 206.424H868.913L865.823 217.333H863.146L861.1 209.961H860.951L858.906 217.333H856.221ZM873.847 217.554C873.156 217.554 872.533 217.43 871.979 217.184C871.43 216.933 870.994 216.564 870.672 216.076C870.355 215.589 870.196 214.987 870.196 214.272C870.196 213.657 870.31 213.148 870.537 212.745C870.765 212.343 871.075 212.021 871.468 211.779C871.861 211.538 872.303 211.356 872.796 211.233C873.293 211.105 873.807 211.012 874.337 210.956C874.976 210.889 875.495 210.83 875.892 210.778C876.29 210.721 876.579 210.636 876.759 210.522C876.944 210.404 877.036 210.222 877.036 209.975V209.933C877.036 209.398 876.877 208.983 876.56 208.69C876.243 208.396 875.786 208.25 875.189 208.25C874.56 208.25 874.06 208.387 873.691 208.661C873.326 208.936 873.08 209.26 872.952 209.635L870.551 209.294C870.741 208.631 871.053 208.077 871.489 207.632C871.925 207.182 872.457 206.846 873.087 206.623C873.717 206.396 874.413 206.282 875.175 206.282C875.701 206.282 876.224 206.344 876.745 206.467C877.266 206.59 877.741 206.794 878.172 207.078C878.603 207.357 878.949 207.738 879.209 208.221C879.474 208.704 879.607 209.308 879.607 210.032V217.333H877.135V215.835H877.05C876.894 216.138 876.674 216.422 876.39 216.687C876.11 216.947 875.757 217.158 875.331 217.319C874.91 217.475 874.415 217.554 873.847 217.554ZM874.515 215.664C875.031 215.664 875.478 215.563 875.857 215.359C876.236 215.151 876.527 214.876 876.73 214.535C876.939 214.194 877.043 213.822 877.043 213.42V212.135C876.962 212.201 876.825 212.262 876.631 212.319C876.442 212.376 876.229 212.426 875.992 212.468C875.755 212.511 875.521 212.549 875.289 212.582C875.057 212.615 874.855 212.644 874.685 212.667C874.301 212.719 873.958 212.804 873.655 212.923C873.352 213.041 873.113 213.207 872.938 213.42C872.763 213.628 872.675 213.898 872.675 214.23C872.675 214.703 872.848 215.061 873.194 215.302C873.539 215.544 873.98 215.664 874.515 215.664ZM882.192 217.333V206.424H884.685V208.242H884.799C884.998 207.613 885.338 207.127 885.821 206.786C886.309 206.441 886.865 206.268 887.49 206.268C887.632 206.268 887.791 206.275 887.966 206.289C888.146 206.299 888.295 206.315 888.414 206.339V208.704C888.305 208.666 888.132 208.633 887.895 208.605C887.663 208.572 887.438 208.555 887.221 208.555C886.752 208.555 886.33 208.657 885.956 208.86C885.587 209.059 885.296 209.336 885.083 209.691C884.87 210.046 884.763 210.456 884.763 210.92V217.333H882.192ZM893.721 217.525C892.864 217.525 892.097 217.305 891.42 216.865C890.743 216.424 890.208 215.785 889.815 214.947C889.422 214.109 889.225 213.091 889.225 211.893C889.225 210.681 889.424 209.658 889.822 208.825C890.224 207.987 890.766 207.355 891.448 206.929C892.13 206.498 892.89 206.282 893.728 206.282C894.367 206.282 894.893 206.391 895.305 206.609C895.717 206.822 896.043 207.08 896.285 207.383C896.526 207.681 896.713 207.963 896.846 208.228H896.952V202.788H899.531V217.333H897.002V215.615H896.846C896.713 215.88 896.522 216.161 896.271 216.46C896.02 216.753 895.688 217.004 895.276 217.213C894.864 217.421 894.346 217.525 893.721 217.525ZM894.438 215.416C894.983 215.416 895.447 215.269 895.83 214.975C896.214 214.677 896.505 214.263 896.704 213.733C896.903 213.202 897.002 212.584 897.002 211.879C897.002 211.173 896.903 210.56 896.704 210.039C896.51 209.519 896.221 209.114 895.837 208.825C895.459 208.536 894.992 208.392 894.438 208.392C893.865 208.392 893.387 208.541 893.004 208.839C892.62 209.137 892.331 209.549 892.137 210.075C891.943 210.6 891.846 211.202 891.846 211.879C891.846 212.561 891.943 213.169 892.137 213.704C892.336 214.234 892.627 214.653 893.011 214.961C893.399 215.264 893.875 215.416 894.438 215.416ZM910.892 209.308L908.549 209.563C908.482 209.327 908.366 209.104 908.201 208.896C908.04 208.688 907.822 208.519 907.547 208.392C907.273 208.264 906.936 208.2 906.539 208.2C906.004 208.2 905.554 208.316 905.189 208.548C904.829 208.78 904.652 209.081 904.657 209.45C904.652 209.767 904.768 210.025 905.005 210.224C905.246 210.423 905.644 210.586 906.198 210.714L908.059 211.112C909.091 211.334 909.858 211.687 910.36 212.17C910.866 212.653 911.122 213.285 911.127 214.066C911.122 214.753 910.921 215.359 910.523 215.885C910.13 216.405 909.583 216.813 908.882 217.106C908.182 217.4 907.377 217.546 906.468 217.546C905.132 217.546 904.058 217.267 903.243 216.708C902.429 216.145 901.944 215.361 901.787 214.358L904.294 214.116C904.408 214.608 904.65 214.98 905.019 215.231C905.388 215.482 905.869 215.608 906.461 215.608C907.071 215.608 907.561 215.482 907.931 215.231C908.305 214.98 908.492 214.67 908.492 214.301C908.492 213.988 908.371 213.73 908.13 213.527C907.893 213.323 907.524 213.167 907.022 213.058L905.161 212.667C904.114 212.449 903.34 212.082 902.838 211.566C902.337 211.045 902.088 210.387 902.093 209.592C902.088 208.92 902.27 208.337 902.64 207.845C903.014 207.348 903.532 206.964 904.195 206.694C904.863 206.42 905.632 206.282 906.503 206.282C907.782 206.282 908.788 206.554 909.522 207.099C910.26 207.644 910.717 208.38 910.892 209.308Z" fill="#666666"/>
<rect x="828" y="252.2" width="572" height="135.3" rx="8" fill="#EEEEEE"/>
</g>
<defs>
<clipPath id="clip0_28_98">
<rect width="1420" height="900" fill="white"/>
</clipPath>
</defs>
</svg>
