<svg width="1100" height="1060" viewBox="0 0 1100 1060" fill="none" xmlns="http://www.w3.org/2000/svg">
<path fill-rule="evenodd" clip-rule="evenodd" d="M994.783 918.151C1019.47 859.534 1033.15 795.23 1033.15 727.768C1033.15 454.375 809.339 232.761 533.217 232.761C257.113 232.761 33.2827 454.375 33.2827 727.768C33.2827 795.235 46.9697 859.53 71.674 918.151H994.783Z" fill="#EAD9F7"/>
<path fill-rule="evenodd" clip-rule="evenodd" d="M899.039 925.936C929.3 869.035 946.626 804.327 946.626 735.557C946.626 509.486 761.539 326.224 533.226 326.224C304.913 326.224 119.826 509.486 119.826 735.557C119.826 804.327 137.135 869.035 167.413 925.94H899.044L899.039 925.936Z" fill="#DDB9F5"/>
<path d="M127.031 918.151H95.7827M970.67 918.151H939.422M158.274 918.151H908.178" stroke="#504B46" stroke-linecap="round"/>
<path fill-rule="evenodd" clip-rule="evenodd" d="M594.739 645.553H501C414.717 645.553 344.774 715.291 344.774 801.321V809.11H422.887V918.151H672.857V809.11H750.97V801.321C750.97 715.291 681.026 645.553 594.739 645.553Z" fill="#8B6ABB"/>
<path fill-rule="evenodd" clip-rule="evenodd" d="M749.243 779.408C748.839 776.498 748.478 773.552 747.917 770.685C747.367 771.729 747.072 772.889 747.056 774.069C747.056 776.137 747.917 778.009 749.243 779.413M715.817 727.329C711.509 727.329 708.009 730.822 708.009 735.119C708.009 739.419 711.509 742.908 715.817 742.908C720.13 742.908 723.63 739.419 723.63 735.119C723.63 730.818 720.13 727.329 715.817 727.329ZM715.817 805.218C712.948 805.218 710.556 806.838 709.196 809.127H722.443C721.083 806.838 718.691 805.218 715.817 805.218ZM629.891 657.235C629.891 661.535 633.391 665.024 637.704 665.024C642.017 665.024 645.517 661.535 645.517 657.235C645.517 656.005 645.169 654.867 644.656 653.837C641.061 652.65 637.423 651.59 633.752 650.662C631.487 652.03 629.891 654.398 629.891 657.235ZM676.761 703.966C681.074 703.966 684.574 700.477 684.574 696.177C684.574 691.876 681.074 688.387 676.761 688.387C672.448 688.387 668.948 691.88 668.948 696.177C668.948 700.477 672.448 703.966 676.761 703.966ZM637.704 742.912C642.017 742.912 645.517 739.419 645.517 735.119C645.517 730.818 642.017 727.329 637.704 727.329C633.391 727.329 629.891 730.822 629.891 735.119C629.891 739.419 633.391 742.912 637.704 742.912ZM676.761 781.85C681.074 781.85 684.574 778.361 684.574 774.06C684.574 769.76 681.074 766.276 676.761 766.276C672.448 766.276 668.948 769.764 668.948 774.06C668.948 778.361 672.448 781.85 676.761 781.85ZM637.704 820.792C642.017 820.792 645.517 817.303 645.517 813.007C645.517 808.706 642.017 805.218 637.704 805.218C633.391 805.218 629.891 808.706 629.891 813.007C629.891 817.308 633.391 820.792 637.704 820.792ZM668.948 851.949C668.948 854.799 670.556 857.184 672.856 858.535V845.359C670.561 846.714 668.948 849.095 668.948 851.949ZM637.704 883.101C633.391 883.101 629.891 886.59 629.891 890.891C629.891 895.192 633.391 898.68 637.704 898.68C642.017 898.68 645.517 895.192 645.517 890.891C645.517 886.59 642.017 883.101 637.704 883.101ZM559.591 665.02C563.9 665.02 567.4 661.535 567.4 657.235C567.4 652.934 563.9 649.445 559.591 649.445C555.278 649.445 551.778 652.934 551.778 657.235C551.778 661.535 555.278 665.02 559.591 665.02ZM598.648 703.966C602.956 703.966 606.456 700.477 606.456 696.177C606.456 691.876 602.956 688.387 598.648 688.387C594.335 688.387 590.835 691.88 590.835 696.177C590.835 700.477 594.335 703.966 598.648 703.966ZM559.591 742.912C563.9 742.912 567.4 739.419 567.4 735.119C567.4 730.818 563.9 727.329 559.591 727.329C555.278 727.329 551.778 730.822 551.778 735.119C551.778 739.419 555.278 742.912 559.591 742.912ZM598.648 781.85C602.956 781.85 606.456 778.361 606.456 774.06C606.456 769.76 602.956 766.276 598.648 766.276C594.335 766.276 590.835 769.764 590.835 774.06C590.835 778.361 594.335 781.85 598.648 781.85ZM559.591 805.218C555.278 805.218 551.778 808.706 551.778 813.007C551.778 817.308 555.278 820.792 559.591 820.792C563.9 820.792 567.4 817.303 567.4 813.007C567.4 808.706 563.9 805.218 559.591 805.218ZM598.648 844.159C594.335 844.159 590.835 847.648 590.835 851.949C590.835 856.25 594.335 859.738 598.648 859.738C602.956 859.738 606.456 856.245 606.456 851.949C606.456 847.648 602.956 844.159 598.648 844.159ZM559.591 883.101C555.278 883.101 551.778 886.59 551.778 890.891C551.778 895.192 555.278 898.68 559.591 898.68C563.9 898.68 567.4 895.192 567.4 890.891C567.4 886.59 563.9 883.101 559.591 883.101ZM481.478 665.02C485.783 665.02 489.287 661.535 489.287 657.235C489.287 652.934 485.787 649.445 481.474 649.445C477.161 649.445 473.661 652.934 473.661 657.235C473.661 661.535 477.161 665.024 481.474 665.024M520.53 703.966C524.843 703.966 528.343 700.477 528.343 696.177C528.343 691.876 524.843 688.387 520.53 688.387C516.222 688.387 512.722 691.88 512.722 696.177C512.722 700.477 516.222 703.966 520.53 703.966ZM481.478 727.329C477.161 727.329 473.661 730.822 473.661 735.119C473.661 739.419 477.161 742.908 481.474 742.908C485.787 742.908 489.287 739.419 489.287 735.119C489.287 730.818 485.791 727.329 481.478 727.329ZM520.53 766.276C516.222 766.276 512.722 769.764 512.722 774.06C512.722 778.361 516.222 781.85 520.53 781.85C524.843 781.85 528.343 778.361 528.343 774.06C528.343 769.76 524.843 766.276 520.53 766.276ZM481.478 805.218C477.161 805.218 473.661 808.706 473.661 813.007C473.661 817.308 477.161 820.792 481.474 820.792C485.787 820.792 489.287 817.303 489.287 813.007C489.287 808.706 485.791 805.218 481.478 805.218ZM520.53 844.159C516.222 844.159 512.722 847.648 512.722 851.949C512.722 856.25 516.222 859.738 520.53 859.738C524.843 859.738 528.343 856.245 528.343 851.949C528.343 847.648 524.843 844.159 520.53 844.159ZM481.478 883.101C477.161 883.101 473.661 886.59 473.661 890.891C473.661 895.192 477.161 898.68 481.474 898.68C485.787 898.68 489.287 895.192 489.287 890.891C489.287 886.59 485.791 883.101 481.478 883.101ZM442.417 688.392C438.104 688.392 434.604 691.88 434.604 696.177C434.604 700.477 438.104 703.966 442.417 703.966C446.73 703.966 450.23 700.477 450.23 696.177C450.23 691.876 446.73 688.387 442.417 688.387M403.361 742.912C407.669 742.912 411.169 739.419 411.169 735.119C411.169 730.818 407.669 727.329 403.361 727.329C399.048 727.329 395.548 730.822 395.548 735.119C395.548 739.419 399.048 742.912 403.361 742.912ZM442.417 766.276C438.104 766.276 434.604 769.764 434.604 774.06C434.604 778.361 438.104 781.85 442.417 781.85C446.73 781.85 450.23 778.361 450.23 774.06C450.23 769.76 446.73 766.276 442.417 766.276ZM403.361 805.218C400.487 805.218 398.096 806.838 396.735 809.127H409.983C408.626 806.838 406.235 805.218 403.361 805.218ZM442.417 844.159C438.104 844.159 434.604 847.648 434.604 851.949C434.604 856.25 438.104 859.738 442.417 859.738C446.73 859.738 450.23 856.245 450.23 851.949C450.23 847.648 446.73 844.159 442.417 844.159ZM364.304 766.276C359.991 766.276 356.491 769.764 356.491 774.06C356.491 778.361 359.991 781.85 364.3 781.85C368.613 781.85 372.113 778.361 372.113 774.06C372.113 769.76 368.617 766.276 364.304 766.276Z" fill="white"/>
<path fill-rule="evenodd" clip-rule="evenodd" d="M750.97 801.343C750.97 715.309 681.026 645.57 594.739 645.57H501C414.717 645.57 344.774 715.309 344.774 801.343V816.917C344.774 730.887 414.717 707.876 501.004 707.876H594.743C681.026 707.876 750.97 730.887 750.97 816.917V801.343Z" fill="white" fill-opacity="0.2"/>
<path d="M422.887 793.553V918.168H672.856V793.553" stroke="#504B46" stroke-linecap="round" stroke-linejoin="round"/>
<path d="M672.857 809.127H750.97V801.343C750.97 715.309 681.026 645.57 594.739 645.57H501C414.717 645.57 344.774 715.309 344.774 801.343V809.127H422.887" stroke="#504B46" stroke-linecap="round" stroke-linejoin="round"/>
<path d="M422.887 824.706V809.127" stroke="#504B46" stroke-linecap="round" stroke-linejoin="round"/>
<path d="M548.848 824.688V910.357" stroke="#504A45" stroke-linecap="round" stroke-linejoin="round"/>
<path fill-rule="evenodd" clip-rule="evenodd" d="M883.765 949.308H828.1C787.543 949.308 749.987 935.159 749.987 832.491V809.127H687.496V832.491C687.496 980.535 763.97 1011.61 828.104 1011.61H883.765C901.026 1011.61 915.013 997.655 915.013 980.456C915.013 963.245 901.03 949.308 883.765 949.308Z" fill="#FFD4C3"/>
<path fill-rule="evenodd" clip-rule="evenodd" d="M883.765 949.308H828.1C787.543 949.308 749.987 935.159 749.987 832.491V809.127H687.496V832.491C687.496 980.535 763.97 1011.61 828.104 1011.61H883.765C901.026 1011.61 915.013 997.655 915.013 980.456C915.013 963.245 901.03 949.308 883.765 949.308Z" stroke="#504A45"/>
<path fill-rule="evenodd" clip-rule="evenodd" d="M594.739 659.502C594.739 675.129 586.913 689.725 573.87 698.384C566.167 703.504 557.123 706.235 547.872 706.235C538.621 706.235 529.576 703.504 521.874 698.384C508.83 689.725 501.004 675.129 501.004 659.502V591.059H594.744V659.502H594.739Z" fill="#FFDFD1"/>
<path fill-rule="evenodd" clip-rule="evenodd" d="M501 643.902C502.191 644.432 503.3 645.023 504.548 645.505C530.783 655.975 564.965 655.975 591.196 645.505C592.443 645.023 593.552 644.432 594.739 643.898V591.05H501V643.902Z" fill="#FFCAB3"/>
<path fill-rule="evenodd" clip-rule="evenodd" d="M594.739 659.502C594.739 675.129 586.913 689.725 573.87 698.384C566.167 703.504 557.123 706.235 547.872 706.235C538.621 706.235 529.576 703.504 521.874 698.384C508.83 689.725 501.004 675.129 501.004 659.502V591.059H594.744V659.502H594.739Z" stroke="#504B46" stroke-linecap="round" stroke-linejoin="round"/>
<path fill-rule="evenodd" clip-rule="evenodd" d="M704.1 474.22C704.1 459.723 694.117 447.65 680.665 444.175V435.282C680.665 366.46 616.896 310.663 547.874 310.663C478.848 310.663 415.078 366.46 415.078 435.282V444.175C401.626 447.65 391.644 459.723 391.644 474.224C391.644 488.851 401.783 501.028 415.422 504.382C418.983 570.024 481.148 622.207 547.874 622.207C614.596 622.207 676.761 570.024 680.322 504.382C693.961 501.032 704.104 488.851 704.104 474.224" fill="#FFD4C3"/>
<path fill-rule="evenodd" clip-rule="evenodd" d="M704.1 474.22C704.1 459.723 694.117 447.65 680.665 444.175V435.282C680.665 366.46 616.896 310.663 547.874 310.663C478.848 310.663 415.078 366.46 415.078 435.282V444.175C401.626 447.65 391.644 459.723 391.644 474.224C391.644 488.851 401.783 501.028 415.422 504.382C418.983 570.024 481.148 622.207 547.874 622.207C614.596 622.207 676.761 570.024 680.322 504.382C693.961 501.032 704.104 488.851 704.104 474.224L704.1 474.22Z" stroke="#504A45"/>
<path d="M524.435 482.013C519.609 472.868 511.144 466.435 501 466.435C490.865 466.435 482.396 472.864 477.565 482.013M618.174 482.013C613.348 472.868 604.878 466.435 594.739 466.435C584.6 466.435 576.131 472.864 571.305 482.013" stroke="#504B46" stroke-linecap="round" stroke-linejoin="round"/>
<path fill-rule="evenodd" clip-rule="evenodd" d="M556.661 419.686C600.904 419.686 641.117 408.982 671.582 391.553C651.695 344.339 601.435 310.663 547.878 310.663C497.635 310.663 450.313 340.29 428.208 382.908C459.687 405.415 505.495 419.686 556.661 419.686Z" fill="#F9BEAA"/>
<path fill-rule="evenodd" clip-rule="evenodd" d="M654.63 375.548C655.096 391.187 692.622 605.746 548.848 614.391C408.283 622.863 432.969 372.946 455.109 372.946C494.165 380.735 573.2 399.802 657.239 365.161C705.074 170.447 364.587 212.378 376.022 372.946C408.239 357.372 415.083 380.735 415.083 404.103C415.083 478.564 418.987 526.772 415.083 552.082C388.961 721.295 504.587 729.927 550.156 820.787C600.93 724.736 720.069 683.756 680.674 546.243C674.813 525.803 695.309 375.548 654.63 375.548Z" fill="#FFD183"/>
<path fill-rule="evenodd" clip-rule="evenodd" d="M682.461 620.639C681.931 620.621 681.418 620.53 680.883 620.5C682.509 621.09 684.148 621.729 685.726 622.242C685.822 621.729 685.87 621.182 685.961 620.669C684.774 620.639 683.683 620.686 682.461 620.639ZM412.148 620.652C412.191 621.043 412.257 621.403 412.304 621.777C413.461 621.386 414.661 620.934 415.835 620.5C415.318 620.53 414.804 620.621 414.27 620.639C413.539 620.669 412.865 620.639 412.148 620.652Z" fill="#FFC258"/>
<path fill-rule="evenodd" clip-rule="evenodd" d="M538.487 612.888C521.774 612.411 507.587 608.066 495.652 600.79C472.326 612.05 444.874 619.044 415.848 620.495C414.661 620.93 413.456 621.381 412.3 621.785C414.113 637.069 417.565 650.527 422.287 662.552C469.652 658.816 512.417 640.583 538.487 612.888ZM680.891 620.5C650.269 618.957 621.491 611.198 597.4 598.813C586.152 605.342 572.922 609.891 557.408 611.868C582.917 639.61 624.943 658.069 671.83 662.322C678.204 649.941 683.061 636.73 685.717 622.242C684.152 621.729 682.5 621.09 680.891 620.5Z" fill="#FFC258"/>
<path fill-rule="evenodd" clip-rule="evenodd" d="M406.704 374.545C445.639 288.68 597.587 259.074 658.204 318.23C646.504 176.06 362.491 223.525 372.944 370.448C391.3 361.586 401.396 365.352 406.704 374.545Z" fill="#FFEDD8"/>
<path fill-rule="evenodd" clip-rule="evenodd" d="M654.63 375.548C655.096 391.187 692.622 605.746 548.848 614.391C408.283 622.863 432.969 372.946 455.109 372.946C494.165 380.735 573.2 399.802 657.239 365.161C705.074 170.447 364.587 212.378 376.022 372.946C408.239 357.372 415.083 380.735 415.083 404.103C415.083 478.564 418.987 526.772 415.083 552.082C388.961 721.295 504.587 729.927 550.156 820.787C600.93 724.736 723.635 681.575 676.765 543.328C669.939 523.188 711.917 375.548 654.63 375.548Z" stroke="#504A45" stroke-linecap="round" stroke-linejoin="round"/>
<path fill-rule="evenodd" clip-rule="evenodd" d="M707.682 553.389C729.161 544.631 742.178 580.324 714.839 585.194C674.265 592.423 582.682 515.316 548.843 536.516C515.017 515.316 423.439 592.427 382.848 585.194C355.509 580.319 368.539 544.631 390.022 553.389C334.026 508.274 311.391 626.647 414.752 622.189C471.917 619.731 523.456 595.898 548.843 559.884C574.235 595.898 625.787 619.731 682.952 622.189C786.313 626.647 763.661 508.274 707.682 553.389Z" fill="#FFD183"/>
<path fill-rule="evenodd" clip-rule="evenodd" d="M707.682 553.389C729.161 544.631 742.178 580.324 714.839 585.194C674.265 592.423 582.682 515.316 548.843 536.516C515.017 515.316 423.439 592.427 382.848 585.194C355.509 580.319 368.539 544.631 390.022 553.389C334.026 508.274 311.391 626.647 414.752 622.189C471.917 619.731 523.456 595.898 548.843 559.884C574.235 595.898 625.787 619.731 682.952 622.189C786.313 626.647 763.661 508.274 707.682 553.389Z" stroke="#504A45" stroke-linecap="round" stroke-linejoin="round"/>
<path fill-rule="evenodd" clip-rule="evenodd" d="M587.904 980.456C587.904 963.245 573.922 949.308 556.661 949.308H501.013C460.439 949.308 422.896 935.159 422.896 832.491V809.127H360.404V832.491C360.404 980.535 436.861 1011.61 501.013 1011.61H556.661C573.922 1011.61 587.904 997.655 587.904 980.456Z" fill="#FFD4C3"/>
<path fill-rule="evenodd" clip-rule="evenodd" d="M587.904 980.456C587.904 963.245 573.922 949.308 556.661 949.308H501.013C460.439 949.308 422.896 935.159 422.896 832.491V809.127H360.404V832.491C360.404 980.535 436.861 1011.61 501.013 1011.61H556.661C573.922 1011.61 587.904 997.655 587.904 980.456Z" stroke="#504A45"/>
<path fill-rule="evenodd" clip-rule="evenodd" d="M1056.6 1034.98C1056.6 1047.88 930.691 1058.34 775.378 1058.34C620.074 1058.34 494.169 1047.88 494.169 1034.98C494.169 1022.08 620.074 1011.61 775.382 1011.61C930.687 1011.61 1056.6 1022.08 1056.6 1034.98ZM717.743 980.456H686.5L761.113 749.811C762.134 746.673 764.123 743.938 766.795 741.999C769.467 740.06 772.684 739.015 775.987 739.015H795.856" fill="#E3ECF1"/>
<path d="M717.743 980.456H686.5L761.113 749.811C762.134 746.673 764.123 743.938 766.795 741.999C769.467 740.06 772.685 739.015 775.987 739.015H795.856" stroke="#504A45" stroke-linejoin="round"/>
<path fill-rule="evenodd" clip-rule="evenodd" d="M1022.39 980.456H717.744L795.861 739.015H1079.06C1081.52 739.016 1083.94 739.595 1086.14 740.707C1088.33 741.819 1090.23 743.432 1091.68 745.414C1094.62 749.455 1095.47 754.637 1093.91 759.373L1022.39 980.456Z" fill="#ADBAC7"/>
<path fill-rule="evenodd" clip-rule="evenodd" d="M1022.39 980.456H717.744L795.861 739.015H1079.06C1081.52 739.016 1083.94 739.595 1086.14 740.707C1088.33 741.819 1090.23 743.432 1091.68 745.414C1094.62 749.455 1095.47 754.637 1093.91 759.373L1022.39 980.456Z" stroke="#504A45" stroke-linejoin="round"/>
<path fill-rule="evenodd" clip-rule="evenodd" d="M1001.91 739.015H795.869L717.752 980.456H759.761L1001.91 739.015ZM1022.39 980.456H702.122V1019.4H991.148C1008.41 1019.4 1022.39 1005.46 1022.39 988.246V980.456Z" fill="#CAD7DE"/>
<path fill-rule="evenodd" clip-rule="evenodd" d="M1022.39 980.457H702.122V1019.4H991.148C1008.41 1019.4 1022.39 1005.46 1022.39 988.246V980.457Z" stroke="#504A45" stroke-linejoin="round"/>
<path fill-rule="evenodd" clip-rule="evenodd" d="M702.122 980.457H545.891V988.246C545.891 1005.46 559.874 1019.4 577.139 1019.4H702.122V980.457Z" fill="#E3ECF1"/>
<path fill-rule="evenodd" clip-rule="evenodd" d="M702.122 980.457H545.891V988.246C545.891 1005.46 559.874 1019.4 577.139 1019.4H702.122V980.457Z" stroke="#504A45" stroke-linejoin="round"/>
<path fill-rule="evenodd" clip-rule="evenodd" d="M933.983 851.141C933.887 841.453 941.9 836.796 942.278 836.574C937.761 830.002 930.731 829.102 928.235 828.989C922.265 828.381 916.578 832.495 913.531 832.495C910.517 832.495 905.831 829.085 900.878 829.163C894.361 829.272 888.348 832.943 885.004 838.755C878.222 850.472 883.265 867.81 889.861 877.311C893.078 881.968 896.939 887.185 901.97 886.985C906.844 886.798 908.674 883.853 914.548 883.853C920.417 883.853 922.078 886.981 927.217 886.894C932.452 886.811 935.761 882.172 938.965 877.497C942.67 872.11 944.183 866.889 944.278 866.611C944.148 866.563 934.091 862.714 933.983 851.141Z" fill="#EDF2F4"/>
<path fill-rule="evenodd" clip-rule="evenodd" d="M933.983 851.141C933.887 841.453 941.9 836.796 942.278 836.574C937.761 830.002 930.731 829.102 928.235 828.989C922.265 828.381 916.578 832.495 913.531 832.495C910.518 832.495 905.831 829.085 900.878 829.163C894.361 829.272 888.348 832.943 885.004 838.755C878.222 850.472 883.265 867.81 889.861 877.311C893.078 881.968 896.939 887.185 901.97 886.985C906.844 886.798 908.674 883.853 914.548 883.853C920.417 883.853 922.078 886.981 927.217 886.894C932.452 886.811 935.761 882.172 938.965 877.497C942.67 872.11 944.183 866.889 944.278 866.611C944.148 866.563 934.091 862.714 933.983 851.141Z" stroke="#504A45" stroke-linejoin="round"/>
<path d="M920.844 809.11L927.892 802.085" stroke="#504A45" stroke-linecap="round" stroke-linejoin="round"/>
<path fill-rule="evenodd" clip-rule="evenodd" d="M1022.39 980.456H717.744L795.861 739.015H1079.06C1081.52 739.016 1083.94 739.595 1086.14 740.707C1088.33 741.819 1090.23 743.432 1091.68 745.414C1094.62 749.455 1095.47 754.637 1093.91 759.373L1022.39 980.456Z" stroke="#504A45" stroke-linejoin="round"/>
<path d="M219.035 682.605C216.859 684.772 215.132 687.346 213.954 690.181C212.776 693.016 212.169 696.055 212.169 699.124C212.169 702.194 212.776 705.233 213.954 708.068C215.132 710.902 216.859 713.477 219.035 715.643L232.765 729.336C234.938 731.505 236.662 734.08 237.838 736.914C239.014 739.749 239.62 742.787 239.62 745.855C239.62 748.924 239.014 751.962 237.838 754.797C236.662 757.631 234.938 760.206 232.765 762.375L219.035 776.068C216.859 778.234 215.132 780.809 213.954 783.643C212.776 786.478 212.169 789.517 212.169 792.587C212.169 795.656 212.776 798.695 213.954 801.53C215.132 804.365 216.859 806.939 219.035 809.106M278.291 682.605C276.115 684.772 274.389 687.346 273.211 690.181C272.032 693.016 271.426 696.055 271.426 699.124C271.426 702.194 272.032 705.233 273.211 708.068C274.389 710.902 276.115 713.477 278.291 715.643L292.022 729.336C294.195 731.505 295.918 734.08 297.095 736.914C298.271 739.749 298.876 742.787 298.876 745.855C298.876 748.924 298.271 751.962 297.095 754.797C295.918 757.631 294.195 760.206 292.022 762.375L278.291 776.068C276.115 778.234 274.389 780.809 273.211 783.643C272.032 786.478 271.426 789.517 271.426 792.587C271.426 795.656 272.032 798.695 273.211 801.53C274.389 804.365 276.115 806.939 278.291 809.106" stroke="white" stroke-linecap="round" stroke-linejoin="round"/>
<path fill-rule="evenodd" clip-rule="evenodd" d="M353.565 1042.77C353.565 1051.37 304.6 1058.34 244.2 1058.34C183.805 1058.34 134.839 1051.36 134.839 1042.77C134.839 1034.16 183.805 1027.19 244.2 1027.19C304.6 1027.19 353.565 1034.17 353.565 1042.77Z" fill="#E3ECF1"/>
<path fill-rule="evenodd" clip-rule="evenodd" d="M173.896 1003.82C139.435 1003.82 111.404 975.877 111.404 941.514C111.404 907.151 139.435 879.209 173.896 879.209V910.357C156.665 910.357 142.652 924.333 142.652 941.514C142.652 958.696 156.665 972.671 173.896 972.671V1003.82V1003.82Z" fill="white"/>
<path fill-rule="evenodd" clip-rule="evenodd" d="M173.896 1003.82C139.435 1003.82 111.404 975.877 111.404 941.514C111.404 907.151 139.435 879.209 173.896 879.209V910.357C156.665 910.357 142.652 924.333 142.652 941.514C142.652 958.696 156.665 972.671 173.896 972.671V1003.82V1003.82Z" stroke="#504A45" stroke-linejoin="round"/>
<path fill-rule="evenodd" clip-rule="evenodd" d="M329.152 1019.4C329.147 1023.54 327.497 1027.5 324.567 1030.42C321.636 1033.34 317.665 1034.98 313.526 1034.98H190.496C186.358 1034.98 182.387 1033.34 179.458 1030.42C176.529 1027.5 174.88 1023.54 174.874 1019.4V855.841C174.879 851.706 176.527 847.741 179.456 844.82C182.386 841.898 186.357 840.259 190.496 840.263H313.526C315.576 840.26 317.606 840.662 319.501 841.443C321.395 842.225 323.117 843.372 324.568 844.818C326.019 846.265 327.171 847.983 327.957 849.874C328.744 851.766 329.15 853.793 329.152 855.841V1019.4Z" fill="white"/>
<path fill-rule="evenodd" clip-rule="evenodd" d="M329.152 1019.4C329.147 1023.54 327.497 1027.5 324.567 1030.42C321.636 1033.34 317.665 1034.98 313.526 1034.98H190.496C186.358 1034.98 182.387 1033.34 179.458 1030.42C176.529 1027.5 174.88 1023.54 174.874 1019.4V855.841C174.879 851.706 176.527 847.741 179.456 844.82C182.386 841.898 186.357 840.259 190.496 840.263H313.526C315.576 840.26 317.606 840.662 319.501 841.443C321.395 842.225 323.117 843.372 324.568 844.818C326.019 846.265 327.171 847.983 327.957 849.874C328.744 851.766 329.15 853.793 329.152 855.841V1019.4Z" stroke="#504A45" stroke-linejoin="round"/>
<path fill-rule="evenodd" clip-rule="evenodd" d="M274.469 933.725C274.469 933.725 301 921.67 301 902.308C301 882.915 277.469 881.42 274.469 900.813C271.469 881.42 247.943 882.915 247.943 903.789C247.943 924.663 274.469 933.725 274.469 933.725Z" fill="#E05C4A"/>
<path d="M223.696 894.788V925.936M215.883 894.788H231.509M215.883 925.936H231.509" stroke="#504A45" stroke-linecap="round" stroke-linejoin="round"/>
<path d="M207.044 987H205.544L213.942 963.727H215.578L223.976 987H222.476L214.817 965.557H214.703L207.044 987ZM209.169 978.239H220.351V979.557H209.169V978.239ZM228.084 987V969.545H229.459V987H228.084ZM228.777 966.455C228.474 966.455 228.209 966.348 227.982 966.136C227.762 965.924 227.652 965.667 227.652 965.364C227.652 965.061 227.762 964.803 227.982 964.591C228.201 964.379 228.466 964.273 228.777 964.273C229.08 964.273 229.341 964.379 229.561 964.591C229.788 964.803 229.902 965.061 229.902 965.364C229.902 965.667 229.792 965.924 229.572 966.136C229.353 966.348 229.088 966.455 228.777 966.455ZM235.266 987V969.545H236.618V972.273H236.743C237.122 971.379 237.762 970.663 238.663 970.125C239.565 969.58 240.591 969.307 241.743 969.307C241.864 969.307 241.985 969.307 242.107 969.307C242.228 969.307 242.341 969.311 242.447 969.318V970.716C242.357 970.708 242.247 970.697 242.118 970.682C241.997 970.659 241.845 970.648 241.663 970.648C240.694 970.648 239.83 970.856 239.072 971.273C238.322 971.689 237.732 972.265 237.3 973C236.868 973.727 236.652 974.561 236.652 975.5V987H235.266ZM246.661 987V963.727H248.081V985.682H259.445V987H246.661ZM263.098 993.545C262.75 993.545 262.405 993.508 262.064 993.432C261.723 993.356 261.416 993.258 261.143 993.136L261.553 991.92C262.265 992.193 262.909 992.292 263.484 992.216C264.068 992.14 264.583 991.875 265.03 991.42C265.477 990.966 265.856 990.299 266.166 989.42L266.962 987.239L260.564 969.545H262.053L267.598 985.216H267.712L273.257 969.545H274.746L267.382 989.966C267.102 990.754 266.75 991.413 266.325 991.943C265.901 992.473 265.416 992.871 264.871 993.136C264.333 993.409 263.742 993.545 263.098 993.545ZM285.669 969.545V970.784H277.93V969.545H285.669ZM280.476 987V966.83C280.476 965.951 280.677 965.201 281.078 964.58C281.48 963.958 282.006 963.485 282.658 963.159C283.317 962.833 284.025 962.67 284.783 962.67C285.184 962.67 285.525 962.705 285.805 962.773C286.093 962.833 286.343 962.905 286.555 962.989L286.146 964.216C285.972 964.155 285.783 964.102 285.578 964.057C285.381 964.011 285.146 963.989 284.874 963.989C283.995 963.989 283.271 964.258 282.703 964.795C282.135 965.333 281.851 966.083 281.851 967.045L281.839 987H280.476ZM296.155 969.545V970.784H288.53V969.545H296.155ZM291.109 965.364H292.484V982.875C292.484 983.587 292.621 984.17 292.893 984.625C293.174 985.072 293.537 985.405 293.984 985.625C294.439 985.837 294.924 985.943 295.439 985.943C295.689 985.943 295.905 985.924 296.087 985.886C296.276 985.848 296.454 985.799 296.621 985.739L296.962 987C296.75 987.076 296.515 987.14 296.257 987.193C296 987.254 295.696 987.284 295.348 987.284C294.621 987.284 293.931 987.121 293.28 986.795C292.636 986.47 292.113 985.996 291.712 985.375C291.31 984.754 291.109 984.004 291.109 983.125V965.364Z" fill="#504A45"/>
<path fill-rule="evenodd" clip-rule="evenodd" d="M103.522 246.706H87.8089C84.9219 246.706 82.6089 249.034 82.6089 251.906C82.6089 254.799 84.935 257.106 87.8089 257.106H103.522V272.811C103.522 275.695 105.852 278.006 108.726 278.006C111.622 278.006 113.935 275.678 113.935 272.811V257.106H129.648C132.535 257.106 134.848 254.778 134.848 251.906C134.848 249.013 132.518 246.706 129.648 246.706H113.935V231.006C113.935 228.121 111.605 225.81 108.726 225.81C105.835 225.81 103.522 228.134 103.522 231.006V246.706Z" fill="#673AB7"/>
<path d="M24.3783 437.875C24.3754 436.278 24.0578 434.698 23.4436 433.224C22.8294 431.749 21.9306 430.411 20.7985 429.283C19.6664 428.156 18.3233 427.263 16.8457 426.655C15.3681 426.046 13.7851 425.734 12.187 425.737C8.96014 425.733 5.86359 427.009 3.57821 429.285C1.29284 431.561 0.00576094 434.651 0 437.875C0.00691217 441.099 1.2945 444.187 3.57975 446.463C5.865 448.738 8.96089 450.013 12.187 450.009C15.4138 450.014 18.5108 448.74 20.797 446.464C23.0832 444.189 24.3713 441.099 24.3783 437.875ZM3.48261 437.875C3.48261 433.088 7.38261 429.204 12.187 429.204C16.9957 429.204 20.8957 433.088 20.8957 437.875C20.8934 439.016 20.6663 440.144 20.2274 441.197C19.7885 442.25 19.1464 443.206 18.3377 444.011C17.5291 444.816 16.5697 445.453 15.5143 445.888C14.4589 446.322 13.3283 446.544 12.187 446.542C9.88263 446.545 7.67125 445.634 6.03899 444.009C4.40673 442.384 3.48722 440.178 3.48261 437.875Z" fill="#50E3C2"/>
<path d="M1067.86 346.646C1067.85 345.049 1067.54 343.468 1066.92 341.994C1066.31 340.52 1065.41 339.181 1064.28 338.054C1063.14 336.927 1061.8 336.034 1060.32 335.425C1058.85 334.817 1057.26 334.505 1055.67 334.508C1052.44 334.503 1049.34 335.779 1047.06 338.055C1044.77 340.332 1043.48 343.422 1043.48 346.646C1043.49 349.869 1044.77 352.958 1047.06 355.233C1049.34 357.508 1052.44 358.784 1055.67 358.779C1058.89 358.785 1061.99 357.51 1064.28 355.235C1066.56 352.959 1067.85 349.87 1067.86 346.646ZM1046.96 346.646C1046.96 341.858 1050.86 337.975 1055.67 337.975C1060.47 337.975 1064.37 341.858 1064.37 346.646C1064.37 347.786 1064.14 348.915 1063.71 349.968C1063.27 351.02 1062.62 351.976 1061.82 352.781C1061.01 353.586 1060.05 354.224 1058.99 354.658C1057.94 355.092 1056.81 355.315 1055.67 355.313C1053.36 355.316 1051.15 354.405 1049.52 352.78C1047.89 351.154 1046.97 348.948 1046.96 346.646Z" fill="#50E3C2"/>
<path fill-rule="evenodd" clip-rule="evenodd" d="M770.695 27.738H750.404C748.563 27.738 746.798 28.4687 745.496 29.7694C744.194 31.0701 743.463 32.8342 743.463 34.6736C743.463 36.5131 744.194 38.2772 745.496 39.5778C746.798 40.8785 748.563 41.6092 750.404 41.6092H770.695V61.8839C770.695 63.7228 771.427 65.4863 772.728 66.7866C774.029 68.0869 775.794 68.8173 777.635 68.8173C779.475 68.8173 781.24 68.0869 782.541 66.7866C783.843 65.4863 784.574 63.7228 784.574 61.8839V41.6092H804.865C806.706 41.6092 808.472 40.8785 809.773 39.5778C811.075 38.2772 811.806 36.5131 811.806 34.6736C811.806 32.8342 811.075 31.0701 809.773 29.7694C808.472 28.4687 806.706 27.738 804.865 27.738H784.574V7.47202C784.574 5.63315 783.843 3.86961 782.541 2.56933C781.24 1.26906 779.475 0.538574 777.635 0.538574C775.794 0.538574 774.029 1.26906 772.728 2.56933C771.427 3.86961 770.695 5.63315 770.695 7.47202V27.738Z" fill="#673AB7"/>
</svg>
